JosefinSlab-ThinItalic-TTF.ufo
<glyph name="exclam" format="1">
  <advance width="201"/>
  <unicode hex="0021"/>
  <outline>
    <contour>
      <point x="49" y="36" type="qcurve" name="av01"/>
      <point x="42" y="36"/>
      <point x="32" y="48"/>
      <point x="33" y="56" type="qcurve" name="ah01"/>
      <point x="34" y="65"/>
      <point x="48" y="76"/>
      <point x="55" y="76" type="qcurve" name="sv01"/>
      <point x="63" y="76"/>
      <point x="73" y="65"/>
      <point x="72" y="56" type="qcurve" name="sh01"/>
      <point x="71" y="48"/>
      <point x="57" y="36"/>
    </contour>
    <contour>
      <point x="143" y="750" type="line" name="sh03"/>
      <point x="157" y="750" type="line" name="sh05"/>
      <point x="75" y="166" type="line" name="sh04"/>
      <point x="61" y="166" type="line" name="sh02"/>
    </contour>
  </outline>
</glyph>
<glyph name="dollar" format="1">
  <advance width="567"/>
  <unicode hex="0024"/>
  <outline>
    <contour>
      <point x="399" y="546" type="line" name="sh02"/>
      <point x="414" y="653" type="line" name="sh03"/>
      <point x="397" y="667"/>
      <point x="337" y="688"/>
      <point x="293" y="690" type="qcurve" name="ih02"/>
      <point x="249" y="380" type="line" name="ih03"/>
      <point x="284" y="369"/>
      <point x="353" y="345"/>
      <point x="379.0" y="324.5" type="qcurve" smooth="yes" name="inserted"/>
      <point x="405" y="304" name="fh01"/>
      <point x="433" y="238"/>
      <point x="427" y="186" type="qcurve" name="dh02"/>
      <point x="422" y="142"/>
      <point x="380" y="72" name="fv01"/>
      <point x="348.5" y="46.5" type="qcurve" smooth="yes" name="inserted"/>
      <point x="317" y="21"/>
      <point x="237" y="-7"/>
      <point x="194" y="-8" type="qcurve" name="ih04"/>
      <point x="186" y="-68" type="line" name="sh04"/>
      <point x="173" y="-68" type="line" name="ih01"/>
      <point x="181" y="-8" type="line" name="ih05"/>
      <point x="143" y="-7"/>
      <point x="84" y="9"/>
      <point x="62.5" y="20.0" type="qcurve" smooth="yes" name="inserted"/>
      <point x="41" y="31"/>
      <point x="13" y="55"/>
      <point x="6" y="64" type="qcurve" name="sh08"/>
      <point x="20" y="164" type="line" name="sh07"/>
      <point x="34" y="164" type="line" name="sh09"/>
      <point x="21" y="74" type="line" name="sh10"/>
      <point x="45" y="45"/>
      <point x="123" y="7"/>
      <point x="183" y="6" type="qcurve" name="ih06"/>
      <point x="234" y="367" type="line" name="ih07"/>
      <point x="204" y="376"/>
      <point x="149" y="397"/>
      <point x="128.5" y="413.5" type="qcurve" smooth="yes" name="inserted"/>
      <point x="108" y="430"/>
      <point x="86" y="479"/>
      <point x="89" y="517" type="qcurve" name="dh01"/>
      <point x="92" y="550"/>
      <point x="119" y="615"/>
      <point x="143.0" y="642.0" type="qcurve" smooth="yes" name="inserted"/>
      <point x="167" y="669" name="fh02"/>
      <point x="237" y="703"/>
      <point x="282" y="704" type="qcurve" name="ih08"/>
      <point x="290" y="764" type="line" name="sh06"/>
      <point x="303" y="764" type="line" name="sh05"/>
      <point x="295" y="704" type="line" name="ih09"/>
      <point x="311" y="704"/>
      <point x="347" y="699"/>
      <point x="365.0" y="694.0" type="qcurve" smooth="yes" name="inserted"/>
      <point x="383" y="689"/>
      <point x="416" y="673"/>
      <point x="429" y="660" type="qcurve" name="sh11"/>
      <point x="413" y="546" type="line" name="sh01"/>
    </contour>
    <contour>
      <point x="412" y="182" type="qcurve" name="sh12"/>
      <point x="419" y="230"/>
      <point x="394" y="292"/>
      <point x="370.0" y="311.5" type="qcurve" smooth="yes" name="inserted"/>
      <point x="346" y="331"/>
      <point x="281" y="353"/>
      <point x="247" y="363" type="qcurve" name="ih10"/>
      <point x="196" y="6" type="line" name="ih11"/>
      <point x="233" y="7"/>
      <point x="306" y="34"/>
      <point x="336.0" y="56.5" type="qcurve" smooth="yes" name="inserted"/>
      <point x="366" y="79"/>
      <point x="407" y="143"/>
    </contour>
    <contour>
      <point x="105" y="530" type="qcurve" name="sh13"/>
      <point x="100" y="494"/>
      <point x="118" y="446"/>
      <point x="137.0" y="429.5" type="qcurve" smooth="yes" name="inserted"/>
      <point x="156" y="413"/>
      <point x="207" y="392"/>
      <point x="236" y="383" type="qcurve" name="ih12"/>
      <point x="280" y="690" type="line" name="ih13"/>
      <point x="242" y="689"/>
      <point x="181" y="662" name="fh03"/>
      <point x="158.5" y="639.5" type="qcurve" smooth="yes" name="inserted"/>
      <point x="136" y="617" name="fh04"/>
      <point x="109" y="560"/>
    </contour>
  </outline>
</glyph>
<glyph name="ampersand" format="1">
  <advance width="700"/>
  <unicode hex="0026"/>
  <outline>
    <contour>
      <point x="480" y="375" type="line" name="sh02"/>
      <point x="600" y="375" type="line"/>
      <point x="598" y="361" type="line"/>
      <point x="492" y="361" type="line" name="sh01"/>
      <point x="480" y="274" type="line"/>
      <point x="477" y="249"/>
      <point x="471" y="200"/>
      <point x="465.5" y="176.0" type="qcurve" smooth="yes" name="inserted"/>
      <point x="460" y="152"/>
      <point x="440" y="106"/>
      <point x="424" y="84" type="qcurve" name="ih02"/>
      <point x="470" y="-11" type="line" name="sh04"/>
      <point x="458" y="-19" type="line" name="sh05"/>
      <point x="414" y="72" type="line" name="ih03"/>
      <point x="382" y="36"/>
      <point x="295" y="-7"/>
      <point x="246" y="-7" type="qcurve" name="ab01"/>
      <point x="209" y="-7"/>
      <point x="147" y="18" name="fh01"/>
      <point x="124.5" y="40.0" type="qcurve" smooth="yes" name="inserted"/>
      <point x="102" y="62" name="fh02"/>
      <point x="77" y="123"/>
      <point x="77" y="158" type="qcurve" name="ah01"/>
      <point x="77" y="199"/>
      <point x="107" y="274"/>
      <point x="133.5" y="303.0" type="qcurve" smooth="yes" name="inserted"/>
      <point x="160" y="332" name="fh03"/>
      <point x="230" y="372"/>
      <point x="269" y="379" type="qcurve" name="ih04"/>
      <point x="213" y="496" type="line"/>
      <point x="204" y="514"/>
      <point x="196" y="552"/>
      <point x="196" y="572" type="qcurve" name="ih01"/>
      <point x="196" y="600"/>
      <point x="220" y="662"/>
      <point x="243.0" y="688.0" type="qcurve" smooth="yes" name="inserted"/>
      <point x="266" y="714" name="fh04"/>
      <point x="333" y="748"/>
      <point x="377" y="748" type="qcurve" name="at01"/>
      <point x="414" y="748"/>
      <point x="477" y="722"/>
      <point x="500" y="706" type="qcurve" name="sh06"/>
      <point x="492" y="693" type="line" name="sh07"/>
      <point x="465" y="710"/>
      <point x="405" y="736"/>
      <point x="373" y="736" type="qcurve" name="sv02"/>
      <point x="334" y="736"/>
      <point x="272" y="703" name="fh05"/>
      <point x="251.0" y="678.5" type="qcurve" smooth="yes" name="inserted"/>
      <point x="230" y="654" name="fh06"/>
      <point x="208" y="597"/>
      <point x="208" y="574" type="qcurve" name="sh03"/>
      <point x="208.0" y="556.0" name="inserted"/>
      <point x="216.5" y="521.0"/>
      <point x="225" y="504" type="qcurve"/>
      <point x="417" y="98" type="line" name="ih05"/>
      <point x="431.5" y="118.0" name="inserted"/>
      <point x="450.0" y="162.5"/>
      <point x="454" y="187" type="qcurve"/>
    </contour>
    <contour>
      <point x="93" y="187" type="qcurve"/>
      <point x="92" y="181"/>
      <point x="91" y="169"/>
      <point x="91" y="163" type="qcurve" name="sh08"/>
      <point x="91" y="130"/>
      <point x="114" y="73"/>
      <point x="135.0" y="52.0" type="qcurve" smooth="yes" name="inserted"/>
      <point x="156" y="31"/>
      <point x="213" y="7"/>
      <point x="248" y="7" type="qcurve" name="sv01"/>
      <point x="296" y="7"/>
      <point x="379" y="50"/>
      <point x="408" y="85" type="qcurve" name="ih06"/>
      <point x="275" y="366" type="line" name="ih07"/>
      <point x="240" y="362"/>
      <point x="179" y="331"/>
      <point x="154.5" y="307.0" type="qcurve" smooth="yes" name="inserted"/>
      <point x="130" y="283" name="fh07"/>
      <point x="98" y="221"/>
    </contour>
  </outline>
</glyph>
<glyph name="quotesingle" format="1">
  <advance width="147"/>
  <unicode hex="0027"/>
  <outline>
    <contour>
      <point x="49" y="472" type="line" name="sh01"/>
      <point x="84" y="720" type="line" name="ah01"/>
      <point x="102" y="720" type="line" name="sh02"/>
      <point x="92" y="657"/>
      <point x="73" y="535"/>
      <point x="63" y="472" type="qcurve" name="sh03"/>
    </contour>
  </outline>
</glyph>
<glyph name="parenleft" format="1">
  <advance width="394"/>
  <unicode hex="0028"/>
  <outline>
    <contour>
      <point x="147" y="292" type="qcurve" name="ah01"/>
      <point x="157" y="367"/>
      <point x="204" y="503"/>
      <point x="235.5" y="561.0" type="qcurve" smooth="yes" name="inserted"/>
      <point x="267" y="619"/>
      <point x="339" y="714"/>
      <point x="375" y="747" type="qcurve" name="at01"/>
      <point x="375" y="724" type="line" name="sh01"/>
      <point x="342" y="691"/>
      <point x="274" y="601" name="fh01"/>
      <point x="244.5" y="546.0" type="qcurve" smooth="yes" name="inserted"/>
      <point x="215" y="491"/>
      <point x="171" y="363"/>
      <point x="161" y="292" type="qcurve" name="sh02"/>
      <point x="151" y="221"/>
      <point x="159" y="93"/>
      <point x="173.0" y="38.0" type="qcurve" smooth="yes" name="inserted"/>
      <point x="187" y="-17"/>
      <point x="230" y="-107"/>
      <point x="254" y="-140" type="qcurve" name="sh03"/>
      <point x="252" y="-146"/>
      <point x="250" y="-157"/>
      <point x="248" y="-163" type="qcurve" name="av01"/>
      <point x="221" y="-130"/>
      <point x="175" y="-35"/>
      <point x="160.0" y="23.0" type="qcurve" smooth="yes" name="inserted"/>
      <point x="145" y="81"/>
      <point x="136" y="217"/>
    </contour>
  </outline>
</glyph>
<glyph name="asterisk" format="1">
  <advance width="335"/>
  <unicode hex="002A"/>
  <outline>
    <contour>
      <point x="181" y="575" type="qcurve" name="sh02"/>
      <point x="207" y="559"/>
      <point x="258" y="527"/>
      <point x="284" y="511" type="qcurve" name="sh03"/>
      <point x="282" y="507"/>
      <point x="276" y="500"/>
      <point x="273" y="496" type="qcurve" name="sv01"/>
      <point x="171" y="562" type="line" name="ih01"/>
      <point x="166" y="530"/>
      <point x="156" y="466"/>
      <point x="151" y="434" type="qcurve" name="sh04"/>
      <point x="137" y="434" type="line" name="sh05"/>
      <point x="155" y="561" type="line" name="ih02"/>
      <point x="125" y="545"/>
      <point x="66" y="514"/>
      <point x="36" y="498" type="qcurve" name="iv01"/>
      <point x="30" y="513" type="line" name="sh06"/>
      <point x="59" y="529"/>
      <point x="119" y="560"/>
      <point x="149" y="576" type="qcurve" name="sh07"/>
      <point x="123" y="593"/>
      <point x="74" y="625"/>
      <point x="48" y="642" type="qcurve" name="sh08"/>
      <point x="50" y="645"/>
      <point x="54" y="651"/>
      <point x="56" y="654" type="qcurve" name="iv02"/>
      <point x="82" y="637"/>
      <point x="133" y="606"/>
      <point x="159" y="589" type="qcurve" name="ih03"/>
      <point x="178" y="720" type="line" name="ah01"/>
      <point x="196" y="720" type="line" name="sh01"/>
      <point x="190" y="687"/>
      <point x="180" y="622"/>
      <point x="175" y="589" type="qcurve" name="ih04"/>
      <point x="206" y="605"/>
      <point x="267" y="637"/>
      <point x="298" y="653" type="qcurve" name="sh09"/>
      <point x="300.0" y="649.0" name="inserted"/>
      <point x="302.5" y="643.0"/>
      <point x="303" y="641" type="qcurve" name="sv02"/>
      <point x="272" y="624"/>
      <point x="212" y="592"/>
    </contour>
  </outline>
</glyph>
<glyph name="hyphen" format="1">
  <advance width="300"/>
  <unicode hex="002D"/>
  <outline>
    <contour>
      <point x="52" y="184" type="line" name="ah01"/>
      <point x="53" y="198" type="line" name="sv01"/>
      <point x="237" y="198" type="line"/>
      <point x="236" y="184" type="line" name="sh01"/>
    </contour>
  </outline>
</glyph>
<glyph name="zero" format="1">
  <advance width="616"/>
  <unicode hex="0030"/>
  <outline>
    <contour>
      <point x="36" y="327" type="qcurve" name="dh01"/>
      <point x="43" y="375"/>
      <point x="88" y="490"/>
      <point x="127.0" y="540.5" type="qcurve" smooth="yes" name="inserted"/>
      <point x="166" y="591" name="fh01"/>
      <point x="279" y="658" name="fh02"/>
      <point x="354" y="658" type="qcurve" name="at01"/>
      <point x="428" y="658"/>
      <point x="520" y="589" name="fh03"/>
      <point x="544.0" y="538.5" type="qcurve" smooth="yes" name="inserted"/>
      <point x="568" y="488" name="fh04"/>
      <point x="579" y="372"/>
      <point x="572" y="324" type="qcurve" name="dh02"/>
      <point x="562" y="255" name="fh05"/>
      <point x="501" y="134" name="fh06"/>
      <point x="458.0" y="89.0" type="qcurve" smooth="yes" name="inserted"/>
      <point x="415" y="44" name="fh07"/>
      <point x="309" y="-7"/>
      <point x="254" y="-7" type="qcurve" name="ab01"/>
      <point x="199" y="-7"/>
      <point x="110" y="46"/>
      <point x="80.0" y="91.0" type="qcurve" smooth="yes" name="inserted"/>
      <point x="50" y="136"/>
      <point x="26" y="257"/>
    </contour>
    <contour>
      <point x="51" y="328" type="qcurve" name="sh01"/>
      <point x="40" y="255"/>
      <point x="66" y="137"/>
      <point x="95.5" y="95.0" type="qcurve" smooth="yes" name="inserted"/>
      <point x="125" y="53" name="fh08"/>
      <point x="210" y="7"/>
      <point x="258" y="7" type="qcurve" name="sv01"/>
      <point x="306" y="7"/>
      <point x="404" y="51" name="fh09"/>
      <point x="445.5" y="92.0" type="qcurve" smooth="yes" name="inserted"/>
      <point x="487" y="133" name="fh10"/>
      <point x="547" y="251"/>
      <point x="558" y="323" type="qcurve" name="sh02"/>
      <point x="569" y="396"/>
      <point x="547" y="515"/>
      <point x="519.0" y="556.5" type="qcurve" smooth="yes" name="inserted"/>
      <point x="491" y="598" name="fh11"/>
      <point x="405" y="644"/>
      <point x="351" y="644" type="qcurve" name="sv02"/>
      <point x="297" y="644"/>
      <point x="198" y="601" name="fh12"/>
      <point x="158.0" y="559.5" type="qcurve" smooth="yes" name="inserted"/>
      <point x="118" y="518" name="fh13"/>
      <point x="61" y="401"/>
    </contour>
  </outline>
</glyph>
<glyph name="two" format="1">
  <advance width="495"/>
  <unicode hex="0032"/>
  <outline>
    <contour>
      <point x="44" y="14" type="qcurve" name="sh02"/>
      <point x="390" y="14" type="line" name="sh05"/>
      <point x="406" y="127" type="line" name="sh04"/>
      <point x="420" y="127" type="line" name="sh03"/>
      <point x="402" y="0" type="line" name="sh06"/>
      <point x="6" y="0" type="line" name="sh01"/>
      <point x="79" y="62"/>
      <point x="217" y="183" name="fh01"/>
      <point x="272.0" y="240.5" type="qcurve" smooth="yes" name="inserted"/>
      <point x="327" y="298" name="iv01"/>
      <point x="399" y="405"/>
      <point x="406" y="452" type="qcurve" name="sh07"/>
      <point x="414" y="508"/>
      <point x="393" y="582"/>
      <point x="372.0" y="604.0" type="qcurve" smooth="yes" name="inserted"/>
      <point x="351" y="626"/>
      <point x="297" y="644"/>
      <point x="272" y="644" type="qcurve" name="sv01"/>
      <point x="222" y="644"/>
      <point x="154" y="609"/>
      <point x="132.0" y="582.5" type="qcurve" smooth="yes" name="inserted"/>
      <point x="110" y="556"/>
      <point x="87" y="495"/>
      <point x="83" y="469" type="qcurve" name="sh08"/>
      <point x="78.0" y="434.0" name="inserted"/>
      <point x="90.0" y="377.0"/>
      <point x="107" y="355" type="qcurve" name="sh09"/>
      <point x="97" y="347" type="line" name="sv02"/>
      <point x="80" y="371"/>
      <point x="64" y="428"/>
      <point x="69" y="469" type="qcurve" name="dh01"/>
      <point x="75" y="509"/>
      <point x="108" y="578"/>
      <point x="134.0" y="603.5" type="qcurve" smooth="yes" name="inserted"/>
      <point x="160" y="629" name="fh02"/>
      <point x="231" y="658"/>
      <point x="274" y="658" type="qcurve" name="at01"/>
      <point x="313" y="658"/>
      <point x="373" y="629" name="fh03"/>
      <point x="392.5" y="603.0" type="qcurve" smooth="yes" name="inserted"/>
      <point x="412" y="577"/>
      <point x="427" y="506"/>
      <point x="421" y="464" type="qcurve" name="dh02"/>
      <point x="413" y="406"/>
      <point x="338" y="291" name="sv03"/>
      <point x="284.0" y="235.0" type="qcurve" smooth="yes" name="inserted"/>
      <point x="230" y="179" name="fv01"/>
      <point x="104" y="68"/>
    </contour>
  </outline>
</glyph>
<glyph name="three" format="1">
  <advance width="515"/>
  <unicode hex="0033"/>
  <outline>
    <contour>
      <point x="183" y="361" type="qcurve" name="ih01"/>
      <point x="434" y="636" type="line" name="sh02"/>
      <point x="161" y="636" type="line" name="sv02"/>
      <point x="151" y="568" type="line" name="sh04"/>
      <point x="137" y="568" type="line" name="sh03"/>
      <point x="149" y="650" type="line" name="at01"/>
      <point x="468" y="650" type="line" name="sh01"/>
      <point x="233" y="398" type="line" name="sh05"/>
      <point x="279" y="400" name="iv01"/>
      <point x="356" y="371" name="fh01"/>
      <point x="382.5" y="344.0" type="qcurve" smooth="yes" name="inserted"/>
      <point x="409" y="317"/>
      <point x="434" y="240"/>
      <point x="428" y="195" type="qcurve" name="dh02"/>
      <point x="422" y="153"/>
      <point x="379" y="79"/>
      <point x="347.5" y="51.5" type="qcurve" smooth="yes" name="inserted"/>
      <point x="316" y="24"/>
      <point x="237" y="-8"/>
      <point x="195" y="-8" type="qcurve" name="ab01"/>
      <point x="150" y="-8"/>
      <point x="79" y="28"/>
      <point x="56" y="58" type="qcurve" name="dh01"/>
      <point x="67" y="71" type="line" name="sv03"/>
      <point x="87" y="42"/>
      <point x="152" y="6"/>
      <point x="194" y="6" type="qcurve" name="sv04"/>
      <point x="233" y="6"/>
      <point x="308" y="36"/>
      <point x="338.0" y="62.0" type="qcurve" smooth="yes" name="inserted"/>
      <point x="368" y="88"/>
      <point x="408" y="157"/>
      <point x="414" y="195" type="qcurve" name="sh06"/>
      <point x="420" y="234"/>
      <point x="398" y="303"/>
      <point x="375.5" y="328.5" type="qcurve" smooth="yes" name="inserted"/>
      <point x="353" y="354"/>
      <point x="286" y="384"/>
      <point x="247" y="384" type="qcurve" name="sv01"/>
      <point x="231" y="384"/>
      <point x="198" y="372"/>
    </contour>
  </outline>
</glyph>
<glyph name="four" format="1">
  <advance width="505"/>
  <unicode hex="0034"/>
  <outline>
    <contour>
      <point x="267" y="14" type="line" name="sv01"/>
      <point x="344" y="14" type="line" name="sh01"/>
      <point x="368" y="183" type="line" name="ih01"/>
      <point x="16" y="183" type="line" name="dh01"/>
      <point x="449" y="658" type="line" name="sh03"/>
      <point x="384" y="197" type="line" name="ih02"/>
      <point x="481" y="197" type="line"/>
      <point x="479" y="183" type="line" name="sh04"/>
      <point x="382" y="183" type="line" name="ih03"/>
      <point x="358" y="14" type="line" name="dh02"/>
      <point x="441" y="14" type="line"/>
      <point x="439" y="0" type="line"/>
      <point x="265" y="0" type="line" name="ab01"/>
    </contour>
    <contour>
      <point x="429" y="617" type="line" name="sh02"/>
      <point x="48" y="197" type="line" name="sh05"/>
      <point x="370" y="197" type="line" name="ih04"/>
    </contour>
  </outline>
</glyph>
<glyph name="five" format="1">
  <advance width="543"/>
  <unicode hex="0035"/>
  <outline>
    <contour>
      <point x="476" y="650" type="line" name="sh02"/>
      <point x="464" y="568" type="line" name="sh01"/>
      <point x="450" y="568" type="line" name="sh03"/>
      <point x="460" y="636" type="line" name="sh04"/>
      <point x="201" y="636" type="line" name="sh06"/>
      <point x="164" y="372" type="line" name="sh05"/>
      <point x="188" y="383"/>
      <point x="239" y="395"/>
      <point x="265" y="395" type="qcurve" name="iv01"/>
      <point x="307" y="395"/>
      <point x="377" y="364" name="fh01"/>
      <point x="401.5" y="337.0" type="qcurve" smooth="yes" name="inserted"/>
      <point x="426" y="310" name="fh02"/>
      <point x="448" y="237"/>
      <point x="442" y="195" type="qcurve" name="dh02"/>
      <point x="436" y="153"/>
      <point x="393" y="79"/>
      <point x="361.0" y="51.5" type="qcurve" smooth="yes" name="inserted"/>
      <point x="329" y="24"/>
      <point x="250" y="-8"/>
      <point x="208" y="-8" type="qcurve" name="ab01"/>
      <point x="167" y="-8"/>
      <point x="100" y="22"/>
      <point x="76" y="48" type="qcurve" name="dh01"/>
      <point x="89" y="58" type="line" name="sh07"/>
      <point x="109" y="33"/>
      <point x="170" y="6"/>
      <point x="208" y="6" type="qcurve" name="sv01"/>
      <point x="248" y="6"/>
      <point x="322" y="36"/>
      <point x="352.0" y="62.0" type="qcurve" smooth="yes" name="inserted"/>
      <point x="382" y="88"/>
      <point x="422" y="157"/>
      <point x="428" y="195" type="qcurve" name="sh08"/>
      <point x="433" y="234"/>
      <point x="412" y="301"/>
      <point x="389.5" y="326.5" type="qcurve" smooth="yes" name="inserted"/>
      <point x="367" y="352"/>
      <point x="301" y="381"/>
      <point x="261" y="381" type="qcurve" name="sv02"/>
      <point x="226" y="381"/>
      <point x="165" y="358"/>
      <point x="145" y="341" type="qcurve" name="ih01"/>
      <point x="189" y="650" type="line" name="sh09"/>
    </contour>
  </outline>
</glyph>
<glyph name="eight" format="1">
  <advance width="510"/>
  <unicode hex="0038"/>
  <outline>
    <contour>
      <point x="148" y="511" type="qcurve" name="sh01"/>
      <point x="144" y="486"/>
      <point x="158" y="444"/>
      <point x="174.0" y="428.5" type="qcurve" smooth="yes" name="inserted"/>
      <point x="190" y="413"/>
      <point x="235" y="396"/>
      <point x="263" y="396" type="qcurve" name="iv01"/>
      <point x="290" y="396"/>
      <point x="340" y="413"/>
      <point x="359.5" y="428.5" type="qcurve" smooth="yes" name="inserted"/>
      <point x="379" y="444"/>
      <point x="404" y="486"/>
      <point x="408" y="511" type="qcurve" name="sh02"/>
      <point x="412" y="538"/>
      <point x="399" y="586"/>
      <point x="384.0" y="604.0" type="qcurve" smooth="yes" name="inserted"/>
      <point x="369" y="622"/>
      <point x="325" y="644"/>
      <point x="298" y="644" type="qcurve" name="sv01"/>
      <point x="270" y="644"/>
      <point x="219" y="622"/>
      <point x="199.0" y="604.0" type="qcurve" smooth="yes" name="inserted"/>
      <point x="179" y="586" name="fh01"/>
      <point x="152" y="538"/>
    </contour>
    <contour>
      <point x="48" y="195" type="qcurve" name="sh03"/>
      <point x="43" y="157"/>
      <point x="62" y="88"/>
      <point x="83.5" y="62.0" type="qcurve" smooth="yes" name="inserted"/>
      <point x="105" y="36"/>
      <point x="169" y="5"/>
      <point x="208" y="5" type="qcurve" name="sv02"/>
      <point x="248" y="5"/>
      <point x="322" y="36"/>
      <point x="352.0" y="62.0" type="qcurve" smooth="yes" name="inserted"/>
      <point x="382" y="88"/>
      <point x="422" y="157"/>
      <point x="427" y="195" type="qcurve" name="sh04"/>
      <point x="433" y="234"/>
      <point x="412" y="301" name="fh02"/>
      <point x="389.0" y="326.5" type="qcurve" smooth="yes" name="inserted"/>
      <point x="366" y="352" name="fh03"/>
      <point x="300" y="381"/>
      <point x="260" y="381" type="qcurve" name="sv03"/>
      <point x="221" y="381"/>
      <point x="149" y="352"/>
      <point x="120.5" y="326.5" type="qcurve" smooth="yes" name="inserted"/>
      <point x="92" y="301" name="fh04"/>
      <point x="54" y="234"/>
    </contour>
    <contour>
      <point x="34" y="195" type="qcurve" name="dh01"/>
      <point x="39" y="230"/>
      <point x="70" y="293"/>
      <point x="94.0" y="318.5" type="qcurve" smooth="yes" name="inserted"/>
      <point x="118" y="344" name="fh05"/>
      <point x="178" y="381"/>
      <point x="212" y="389" type="qcurve" name="ih03"/>
      <point x="172" y="403"/>
      <point x="128" y="472"/>
      <point x="135" y="518" type="qcurve" name="ih01"/>
      <point x="139" y="547"/>
      <point x="168" y="598"/>
      <point x="190.5" y="617.0" type="qcurve" smooth="yes" name="inserted"/>
      <point x="213" y="636"/>
      <point x="268" y="658"/>
      <point x="298" y="658" type="qcurve" name="at01"/>
      <point x="328" y="658"/>
      <point x="377" y="635" name="fh06"/>
      <point x="394.0" y="615.5" type="qcurve" smooth="yes" name="inserted"/>
      <point x="411" y="596"/>
      <point x="426" y="544"/>
      <point x="422" y="514" type="qcurve" name="ih02"/>
      <point x="416" y="470"/>
      <point x="355" y="403"/>
      <point x="312" y="389" type="qcurve" name="ih04"/>
      <point x="345" y="381"/>
      <point x="397" y="345" name="fh07"/>
      <point x="414.5" y="319.5" type="qcurve" smooth="yes" name="inserted"/>
      <point x="432" y="294"/>
      <point x="446" y="231"/>
      <point x="441" y="195" type="qcurve" name="dh02"/>
      <point x="435" y="153"/>
      <point x="392" y="79"/>
      <point x="360.5" y="51.5" type="qcurve" smooth="yes" name="inserted"/>
      <point x="329" y="24"/>
      <point x="250" y="-8"/>
      <point x="208" y="-8" type="qcurve" name="ab01"/>
      <point x="166" y="-8"/>
      <point x="97" y="24"/>
      <point x="73.5" y="51.5" type="qcurve" smooth="yes" name="inserted"/>
      <point x="50" y="79"/>
      <point x="28" y="153"/>
    </contour>
  </outline>
</glyph>
<glyph name="colon" format="1">
  <advance width="175"/>
  <unicode hex="003A"/>
  <outline>
    <contour>
      <point x="82" y="270" type="qcurve" name="sh01"/>
      <point x="84" y="278"/>
      <point x="97" y="290"/>
      <point x="105" y="290" type="qcurve" name="av01"/>
      <point x="113" y="290"/>
      <point x="124" y="278"/>
      <point x="122" y="270" type="qcurve" name="sh02"/>
      <point x="121" y="262"/>
      <point x="107" y="250"/>
      <point x="99" y="250" type="qcurve" name="sv01"/>
      <point x="91" y="250"/>
      <point x="81" y="262"/>
    </contour>
    <contour>
      <point x="47" y="20" type="qcurve" name="ah01"/>
      <point x="48" y="28"/>
      <point x="62" y="40"/>
      <point x="70" y="40" type="qcurve" name="sv02"/>
      <point x="78" y="40"/>
      <point x="88" y="28"/>
      <point x="87" y="20" type="qcurve" name="sh03"/>
      <point x="85" y="12"/>
      <point x="72" y="0"/>
      <point x="64" y="0" type="qcurve" name="ab01"/>
      <point x="56" y="0"/>
      <point x="45" y="12"/>
    </contour>
  </outline>
</glyph>
<glyph name="semicolon" format="1">
  <advance width="201"/>
  <unicode hex="003B"/>
  <outline>
    <contour>
      <point x="114" y="270" type="qcurve" name="sh03"/>
      <point x="115" y="278"/>
      <point x="128" y="290"/>
      <point x="136" y="290" type="qcurve" name="av01"/>
      <point x="144" y="290"/>
      <point x="155" y="278"/>
      <point x="154" y="270" type="qcurve" name="sh02"/>
      <point x="152" y="262"/>
      <point x="139" y="250"/>
      <point x="131" y="250" type="qcurve" name="sv01"/>
      <point x="123" y="250"/>
      <point x="112" y="262"/>
    </contour>
    <contour>
      <point x="112" y="86" type="line" name="sh01"/>
      <point x="83" y="34"/>
      <point x="26" y="-68"/>
      <point x="-2" y="-120" type="qcurve" name="sh04"/>
      <point x="-16" y="-120" type="line" name="ah01"/>
      <point x="10" y="-68"/>
      <point x="62" y="34"/>
      <point x="89" y="86" type="qcurve" name="sh05"/>
    </contour>
  </outline>
</glyph>
<glyph name="question" format="1">
  <advance width="452"/>
  <unicode hex="003F"/>
  <outline>
    <contour>
      <point x="74" y="596" type="qcurve" name="sh01"/>
      <point x="71" y="597"/>
      <point x="64" y="598"/>
      <point x="61" y="599" type="qcurve" name="dh01"/>
      <point x="75" y="628"/>
      <point x="118" y="677"/>
      <point x="144.5" y="694.5" type="qcurve" smooth="yes" name="inserted"/>
      <point x="171" y="712"/>
      <point x="233" y="732"/>
      <point x="265" y="732" type="qcurve" name="av01"/>
      <point x="306" y="732"/>
      <point x="374" y="701" name="fh01"/>
      <point x="396.5" y="674.5" type="qcurve" smooth="yes" name="inserted"/>
      <point x="419" y="648"/>
      <point x="440" y="577"/>
      <point x="434" y="537" type="qcurve" name="dh02"/>
      <point x="426" y="483"/>
      <point x="362" y="402"/>
      <point x="312" y="370" type="qcurve" name="sv02"/>
      <point x="291" y="356"/>
      <point x="255" y="337" name="fh02"/>
      <point x="240.5" y="325.0" type="qcurve" smooth="yes" name="inserted"/>
      <point x="226" y="313" name="fh03"/>
      <point x="207" y="275"/>
      <point x="202" y="242" type="qcurve"/>
      <point x="191" y="164" type="line" name="sh02"/>
      <point x="177" y="164" type="line" name="ih01"/>
      <point x="191" y="261" type="line"/>
      <point x="195" y="292"/>
      <point x="224" y="329" name="fh04"/>
      <point x="244.5" y="343.5" type="qcurve" smooth="yes" name="inserted"/>
      <point x="265" y="358"/>
      <point x="316" y="387" name="iv01"/>
      <point x="343" y="408" type="qcurve"/>
      <point x="378" y="435"/>
      <point x="415" y="500"/>
      <point x="420" y="537" type="qcurve" name="sh03"/>
      <point x="425" y="576"/>
      <point x="406" y="642"/>
      <point x="385.0" y="666.5" type="qcurve" smooth="yes" name="inserted"/>
      <point x="364" y="691"/>
      <point x="301" y="718"/>
      <point x="263" y="718" type="qcurve" name="sv03"/>
      <point x="233" y="718"/>
      <point x="176" y="700"/>
      <point x="151.0" y="684.0" type="qcurve" smooth="yes" name="inserted"/>
      <point x="126" y="668"/>
      <point x="86" y="623"/>
    </contour>
    <contour>
      <point x="165" y="25" type="qcurve" name="av02"/>
      <point x="158" y="25"/>
      <point x="147" y="37"/>
      <point x="149" y="45" type="qcurve" name="sh04"/>
      <point x="150" y="54"/>
      <point x="163" y="65"/>
      <point x="170" y="65" type="qcurve" name="sv01"/>
      <point x="178" y="65"/>
      <point x="189" y="54"/>
      <point x="188" y="45" type="qcurve" name="sh05"/>
      <point x="186" y="37"/>
      <point x="173" y="25"/>
    </contour>
  </outline>
</glyph>
<glyph name="A" format="1">
  <advance width="828"/>
  <unicode hex="0041"/>
  <outline>
    <contour>
      <point x="36" y="14" type="line" name="sv01"/>
      <point x="110" y="14" type="line" name="dh01"/>
      <point x="212" y="194"/>
      <point x="415" y="551"/>
      <point x="516" y="732" type="qcurve" name="ih01"/>
      <point x="567" y="551"/>
      <point x="668" y="194"/>
      <point x="719" y="14" type="qcurve" name="dh02"/>
      <point x="794" y="14" type="line"/>
      <point x="793" y="0" type="line"/>
      <point x="619" y="0" type="line" name="sv02"/>
      <point x="620" y="14" type="line"/>
      <point x="704" y="14" type="line" name="sh01"/>
      <point x="683" y="89"/>
      <point x="641" y="240"/>
      <point x="619" y="316" type="qcurve" name="ih02"/>
      <point x="297" y="316" type="line" name="ih03"/>
      <point x="254" y="240"/>
      <point x="170" y="89"/>
      <point x="126" y="14" type="qcurve" name="sh03"/>
      <point x="210" y="14" type="line"/>
      <point x="209" y="0" type="line"/>
      <point x="35" y="0" type="line" name="ab01"/>
    </contour>
    <contour>
      <point x="517" y="675" type="line"/>
      <point x="512" y="700" type="line" name="sh02"/>
      <point x="505" y="686" type="line"/>
      <point x="503.5" y="683.5" name="inserted"/>
      <point x="500.5" y="678.0"/>
      <point x="499" y="675" type="qcurve"/>
      <point x="453" y="587" name="fh01"/>
      <point x="354" y="417"/>
      <point x="305" y="330" type="qcurve" name="ih04"/>
      <point x="615" y="330" type="line" name="ih05"/>
    </contour>
  </outline>
</glyph>
<glyph name="D" format="1">
  <advance width="632"/>
  <unicode hex="0044"/>
  <outline>
    <contour>
      <point x="36" y="14" type="line" name="sv01"/>
      <point x="109" y="14" type="line" name="dh01"/>
      <point x="204" y="686" type="line" name="sh01"/>
      <point x="131" y="686" type="line" name="sh02"/>
      <point x="133" y="700" type="line" name="at01"/>
      <point x="343" y="700" type="line"/>
      <point x="415" y="700"/>
      <point x="536" y="651" name="fh01"/>
      <point x="577.5" y="605.5" type="qcurve" smooth="yes" name="inserted"/>
      <point x="619" y="560"/>
      <point x="657" y="430"/>
      <point x="646" y="350" type="qcurve" name="dh02"/>
      <point x="637" y="291"/>
      <point x="579" y="167"/>
      <point x="526.0" y="116.0" type="qcurve" smooth="yes" name="inserted"/>
      <point x="473" y="65"/>
      <point x="317" y="0"/>
      <point x="211" y="0" type="qcurve"/>
      <point x="35" y="0" type="line" name="ab01"/>
    </contour>
    <contour>
      <point x="218" y="686" type="line" name="sh04"/>
      <point x="123" y="14" type="line" name="sh03"/>
      <point x="221" y="14" type="line"/>
      <point x="320" y="14"/>
      <point x="468" y="77"/>
      <point x="518.0" y="125.5" type="qcurve" smooth="yes" name="inserted"/>
      <point x="568" y="174"/>
      <point x="625" y="293"/>
      <point x="633" y="350" type="qcurve" name="sh05"/>
      <point x="644" y="427"/>
      <point x="608" y="552" name="fh02"/>
      <point x="568.5" y="595.5" type="qcurve" smooth="yes" name="inserted"/>
      <point x="529" y="639" name="fh03"/>
      <point x="414" y="686"/>
      <point x="347" y="686" type="qcurve"/>
    </contour>
  </outline>
</glyph>
<glyph name="G" format="1">
  <advance width="609"/>
  <unicode hex="0047"/>
  <outline>
    <contour>
      <point x="565" y="298" type="line" name="sh01"/>
      <point x="529" y="40" type="line" name="sh02"/>
      <point x="486" y="17"/>
      <point x="392" y="-10"/>
      <point x="341" y="-10" type="qcurve" name="ab01"/>
      <point x="267" y="-10"/>
      <point x="145" y="46"/>
      <point x="103.0" y="94.5" type="qcurve" smooth="yes" name="inserted"/>
      <point x="61" y="143"/>
      <point x="23" y="273"/>
      <point x="33" y="347" type="qcurve" name="dh01"/>
      <point x="43" y="421"/>
      <point x="118" y="552"/>
      <point x="173.5" y="600.5" type="qcurve" smooth="yes" name="inserted"/>
      <point x="229" y="649"/>
      <point x="367" y="706"/>
      <point x="441" y="706" type="qcurve" name="at01"/>
      <point x="492" y="706"/>
      <point x="579" y="680"/>
      <point x="617" y="656" type="qcurve" name="dh02"/>
      <point x="607" y="644" type="line" name="sv01"/>
      <point x="572" y="667"/>
      <point x="487" y="692"/>
      <point x="439" y="692" type="qcurve" name="sv02"/>
      <point x="368" y="692"/>
      <point x="235" y="637"/>
      <point x="182.0" y="590.0" type="qcurve" smooth="yes" name="inserted"/>
      <point x="129" y="543" name="fh01"/>
      <point x="57" y="417"/>
      <point x="47" y="346" type="qcurve" name="sh03"/>
      <point x="37" y="275"/>
      <point x="73" y="151"/>
      <point x="113.0" y="104.5" type="qcurve" smooth="yes" name="inserted"/>
      <point x="153" y="58"/>
      <point x="269" y="4"/>
      <point x="339" y="4" type="qcurve" name="sv03"/>
      <point x="386" y="4"/>
      <point x="474" y="27"/>
      <point x="516" y="49" type="qcurve" name="sh05"/>
      <point x="550" y="284" type="line" name="sh04"/>
      <point x="378" y="284" type="line" name="sv04"/>
      <point x="379" y="298" type="line" name="sh06"/>
    </contour>
  </outline>
</glyph>
<glyph name="J" format="1">
  <advance width="255"/>
  <unicode hex="004A"/>
  <outline>
    <contour>
      <point x="93" y="700" type="line" name="sh01"/>
      <point x="278" y="700" type="line" name="dh02"/>
      <point x="192" y="90" type="line" name="sh02"/>
      <point x="184" y="34"/>
      <point x="143" y="-51"/>
      <point x="113.5" y="-80.0" type="qcurve" smooth="yes" name="inserted"/>
      <point x="84" y="-109" name="fh01"/>
      <point x="13" y="-141"/>
      <point x="-24" y="-142" type="qcurve" name="dh01"/>
      <point x="-23" y="-128" type="line" name="sv01"/>
      <point x="14" y="-126"/>
      <point x="80" y="-95"/>
      <point x="107.0" y="-66.5" type="qcurve" smooth="yes" name="inserted"/>
      <point x="134" y="-38"/>
      <point x="171" y="42"/>
      <point x="178" y="93" type="qcurve" name="sh04"/>
      <point x="262" y="686" type="line" name="sh03"/>
      <point x="91" y="686" type="line" name="sv02"/>
    </contour>
  </outline>
</glyph>
<glyph name="L" format="1">
  <advance width="566"/>
  <unicode hex="004C"/>
  <outline>
    <contour>
      <point x="36" y="14" type="line" name="sv01"/>
      <point x="113" y="14" type="line" name="dh01"/>
      <point x="208" y="686" type="line" name="sh01"/>
      <point x="131" y="686" type="line" name="sh02"/>
      <point x="133" y="700" type="line" name="at01"/>
      <point x="307" y="700" type="line"/>
      <point x="305" y="686" type="line"/>
      <point x="222" y="686" type="line" name="sh04"/>
      <point x="127" y="14" type="line" name="sh03"/>
      <point x="518" y="14" type="line" name="sh06"/>
      <point x="538" y="154" type="line" name="sh05"/>
      <point x="552" y="154" type="line" name="dh02"/>
      <point x="531" y="0" type="line" name="sh07"/>
      <point x="35" y="0" type="line" name="ab01"/>
    </contour>
  </outline>
</glyph>
<glyph name="M" format="1">
  <advance width="961"/>
  <unicode hex="004D"/>
  <outline>
    <contour>
      <point x="919" y="700" type="qcurve" name="sh04"/>
      <point x="1019" y="700" type="line" name="at02"/>
      <point x="1017" y="686" type="line" name="sv01"/>
      <point x="940" y="686" type="line" name="sh05"/>
      <point x="845" y="14" type="line" name="dh02"/>
      <point x="927" y="14" type="line"/>
      <point x="926" y="0" type="line"/>
      <point x="752" y="0" type="line" name="sv03"/>
      <point x="753" y="14" type="line"/>
      <point x="831" y="14" type="line" name="sh01"/>
      <point x="920" y="645" type="line" name="sh02"/>
      <point x="927" y="690" type="line" name="sh03"/>
      <point x="927.0" y="689.5" name="inserted"/>
      <point x="926.0" y="688.0"/>
      <point x="925" y="687" type="qcurve"/>
      <point x="923" y="685"/>
      <point x="919" y="681"/>
      <point x="917" y="678" type="qcurve"/>
      <point x="903" y="663"/>
      <point x="850" y="604"/>
      <point x="815.0" y="565.5" type="qcurve" smooth="yes" name="inserted"/>
      <point x="780" y="527"/>
      <point x="699" y="437"/>
      <point x="658.0" y="392.0" type="qcurve" smooth="yes" name="inserted"/>
      <point x="617" y="347"/>
      <point x="541" y="262"/>
      <point x="510" y="228" type="qcurve" name="sh06"/>
      <point x="433" y="352"/>
      <point x="296" y="570"/>
      <point x="229" y="677" type="qcurve"/>
      <point x="221" y="690" type="line" name="sh09"/>
      <point x="219" y="679"/>
      <point x="218" y="656"/>
      <point x="216" y="645" type="qcurve" name="sh08"/>
      <point x="127" y="14" type="line" name="sh07"/>
      <point x="210" y="14" type="line"/>
      <point x="209" y="0" type="line"/>
      <point x="35" y="0" type="line" name="ab01"/>
      <point x="36" y="14" type="line" name="sv02"/>
      <point x="113" y="14" type="line" name="dh01"/>
      <point x="208" y="686" type="line" name="sh10"/>
      <point x="131" y="686" type="line" name="sh11"/>
      <point x="133" y="700" type="line" name="at01"/>
      <point x="233" y="700" type="line" name="sh12"/>
      <point x="260.0" y="657.0" name="inserted"/>
      <point x="312.5" y="573.0"/>
      <point x="338" y="532" type="qcurve"/>
      <point x="360" y="497"/>
      <point x="407" y="422"/>
      <point x="430.0" y="385.0" type="qcurve" smooth="yes" name="inserted"/>
      <point x="453" y="348"/>
      <point x="495" y="280"/>
      <point x="513" y="253" type="qcurve" name="ih01"/>
      <point x="615" y="364"/>
      <point x="817" y="589"/>
    </contour>
  </outline>
</glyph>
<glyph name="N" format="1">
  <advance width="840"/>
  <unicode hex="004E"/>
  <outline>
    <contour>
      <point x="41" y="14" type="line" name="sh01"/>
      <point x="118" y="14" type="line" name="dh01"/>
      <point x="212" y="686" type="line" name="sh02"/>
      <point x="135" y="686" type="line" name="sh03"/>
      <point x="137" y="700" type="line" name="at01"/>
      <point x="240" y="700" type="line" name="sh07"/>
      <point x="701" y="28" type="line"/>
      <point x="716" y="2" type="line" name="sh10"/>
      <point x="718" y="34" type="line" name="sh09"/>
      <point x="809" y="686" type="line" name="sh08"/>
      <point x="731" y="686" type="line" name="sh11"/>
      <point x="733" y="700" type="line" name="sv01"/>
      <point x="907" y="700" type="line"/>
      <point x="905" y="686" type="line"/>
      <point x="823" y="686" type="line" name="dh02"/>
      <point x="723" y="-32" type="line" name="sh12"/>
      <point x="240" y="670" type="line"/>
      <point x="225" y="690" type="line" name="sh06"/>
      <point x="223" y="664" type="line" name="sh05"/>
      <point x="132" y="14" type="line" name="sh04"/>
      <point x="215" y="14" type="line" name="sh13"/>
      <point x="213" y="0" type="line"/>
      <point x="39" y="0" type="line" name="ab01"/>
    </contour>
  </outline>
</glyph>
<glyph name="O" format="1">
  <advance width="786"/>
  <unicode hex="004F"/>
  <outline>
    <contour>
      <point x="85" y="349" type="qcurve" name="dh01"/>
      <point x="95" y="423"/>
      <point x="170" y="554" name="fh01"/>
      <point x="225.0" y="602.5" type="qcurve" smooth="yes" name="inserted"/>
      <point x="280" y="651" name="fv01"/>
      <point x="418" y="708"/>
      <point x="492" y="708" type="qcurve" name="at01"/>
      <point x="566" y="708"/>
      <point x="689" y="651" name="fh02"/>
      <point x="731.0" y="602.5" type="qcurve" smooth="yes" name="inserted"/>
      <point x="773" y="554" name="fh03"/>
      <point x="811" y="423"/>
      <point x="801" y="349" type="qcurve" name="dh02"/>
      <point x="790" y="275"/>
      <point x="716" y="145"/>
      <point x="660.5" y="96.5" type="qcurve" smooth="yes" name="inserted"/>
      <point x="605" y="48"/>
      <point x="466" y="-8"/>
      <point x="392" y="-8" type="qcurve" name="ab01"/>
      <point x="318" y="-8"/>
      <point x="196" y="48"/>
      <point x="154.0" y="96.5" type="qcurve" smooth="yes" name="inserted"/>
      <point x="112" y="145"/>
      <point x="74" y="275"/>
    </contour>
    <contour>
      <point x="99" y="348" type="qcurve" name="sh01"/>
      <point x="89" y="277"/>
      <point x="125" y="153"/>
      <point x="164.5" y="106.5" type="qcurve" smooth="yes" name="inserted"/>
      <point x="204" y="60"/>
      <point x="320" y="6"/>
      <point x="390" y="6" type="qcurve" name="sv01"/>
      <point x="461" y="6"/>
      <point x="596" y="60"/>
      <point x="650.0" y="106.5" type="qcurve" smooth="yes" name="inserted"/>
      <point x="704" y="153"/>
      <point x="777" y="278"/>
      <point x="787" y="349" type="qcurve" name="sh02"/>
      <point x="797" y="420"/>
      <point x="760" y="545" name="fh04"/>
      <point x="719.5" y="592.0" type="qcurve" smooth="yes" name="inserted"/>
      <point x="679" y="639"/>
      <point x="561" y="694"/>
      <point x="490" y="694" type="qcurve" name="sv02"/>
      <point x="419" y="694"/>
      <point x="287" y="639" name="fh05"/>
      <point x="233.5" y="592.0" type="qcurve" smooth="yes" name="inserted"/>
      <point x="180" y="545" name="fh06"/>
      <point x="109" y="419"/>
    </contour>
  </outline>
</glyph>
<glyph name="P" format="1">
  <advance width="481"/>
  <unicode hex="0050"/>
  <outline>
    <contour>
      <point x="36" y="14" type="line" name="sh01"/>
      <point x="107" y="14" type="line" name="dh01"/>
      <point x="202" y="686" type="line" name="sh02"/>
      <point x="131" y="686" type="line" name="sh03"/>
      <point x="133" y="700" type="line" name="at01"/>
      <point x="344" y="700" type="line"/>
      <point x="373" y="700"/>
      <point x="440" y="680"/>
      <point x="467.0" y="659.0" type="qcurve" smooth="yes" name="inserted"/>
      <point x="494" y="638"/>
      <point x="526" y="570"/>
      <point x="519" y="522" type="qcurve" name="dh02"/>
      <point x="507" y="439" name="fh01"/>
      <point x="382" y="341" name="fv01"/>
      <point x="279" y="341" type="qcurve"/>
      <point x="167" y="341" type="line" name="ih01"/>
      <point x="121" y="14" type="line" name="sh04"/>
      <point x="210" y="14" type="line"/>
      <point x="209" y="0" type="line"/>
      <point x="35" y="0" type="line" name="ab01"/>
    </contour>
    <contour>
      <point x="169" y="355" type="line" name="ih02"/>
      <point x="284" y="355" type="line"/>
      <point x="342" y="355"/>
      <point x="423" y="387"/>
      <point x="449.0" y="411.5" type="qcurve" smooth="yes" name="inserted"/>
      <point x="475" y="436"/>
      <point x="501" y="495"/>
      <point x="505" y="522" type="qcurve" name="sh06"/>
      <point x="509" y="555"/>
      <point x="488" y="614"/>
      <point x="464.5" y="636.5" type="qcurve" smooth="yes" name="inserted"/>
      <point x="441" y="659"/>
      <point x="374" y="686"/>
      <point x="332" y="686" type="qcurve"/>
      <point x="216" y="686" type="line" name="sh05"/>
    </contour>
  </outline>
</glyph>
<glyph name="S" format="1">
  <advance width="478"/>
  <unicode hex="0053"/>
  <outline>
    <contour>
      <point x="56" y="64" type="qcurve" name="sh02"/>
      <point x="70" y="164" type="line" name="sh01"/>
      <point x="84" y="164" type="line" name="sh03"/>
      <point x="71" y="74" type="line" name="sh04"/>
      <point x="96" y="45"/>
      <point x="175" y="6"/>
      <point x="237" y="6" type="qcurve" name="sv01"/>
      <point x="276" y="6"/>
      <point x="351" y="31"/>
      <point x="382.5" y="54.0" type="qcurve" smooth="yes" name="inserted"/>
      <point x="414" y="77"/>
      <point x="456" y="142"/>
      <point x="462" y="182" type="qcurve" name="sh05"/>
      <point x="469" y="228"/>
      <point x="446" y="289"/>
      <point x="423.5" y="308.5" type="qcurve" smooth="yes" name="inserted"/>
      <point x="401" y="328"/>
      <point x="340" y="351"/>
      <point x="307.5" y="360.5" type="qcurve" smooth="yes" name="inserted"/>
      <point x="275" y="370" name="sv02"/>
      <point x="211" y="391"/>
      <point x="187.0" y="407.5" type="qcurve" smooth="yes" name="inserted"/>
      <point x="163" y="424" name="fh01"/>
      <point x="136" y="476"/>
      <point x="139" y="517" type="qcurve" name="dh01"/>
      <point x="142" y="550"/>
      <point x="170" y="617"/>
      <point x="195.0" y="644.0" type="qcurve" smooth="yes" name="inserted"/>
      <point x="220" y="671" name="fh02"/>
      <point x="291" y="704"/>
      <point x="338" y="704" type="qcurve" name="at01"/>
      <point x="354" y="704"/>
      <point x="392" y="700"/>
      <point x="411.0" y="695.5" type="qcurve" smooth="yes" name="inserted"/>
      <point x="430" y="691"/>
      <point x="465" y="673"/>
      <point x="479" y="660" type="qcurve" name="sh07"/>
      <point x="463" y="546" type="line" name="sh06"/>
      <point x="449" y="546" type="line" name="sh08"/>
      <point x="464" y="653" type="line" name="sh09"/>
      <point x="447" y="668"/>
      <point x="382" y="690"/>
      <point x="334" y="690" type="qcurve" name="sv03"/>
      <point x="295" y="690"/>
      <point x="233" y="663" name="fh03"/>
      <point x="210.0" y="640.5" type="qcurve" smooth="yes" name="inserted"/>
      <point x="187" y="618" name="fh04"/>
      <point x="159" y="561"/>
      <point x="155" y="530" type="qcurve" name="sh10"/>
      <point x="149" y="489"/>
      <point x="174" y="438"/>
      <point x="197.0" y="421.5" type="qcurve" smooth="yes" name="inserted"/>
      <point x="220" y="405"/>
      <point x="283" y="385" name="iv01"/>
      <point x="316.0" y="375.0" type="qcurve" smooth="yes" name="inserted"/>
      <point x="349" y="365"/>
      <point x="412" y="340" name="fh05"/>
      <point x="435.5" y="319.5" type="qcurve" smooth="yes" name="inserted"/>
      <point x="459" y="299" name="fh06"/>
      <point x="483" y="235"/>
      <point x="477" y="186" type="qcurve" name="dh02"/>
      <point x="472" y="142"/>
      <point x="429" y="70" name="fh07"/>
      <point x="396.5" y="44.5" type="qcurve" smooth="yes" name="inserted"/>
      <point x="364" y="19"/>
      <point x="282" y="-8"/>
      <point x="238" y="-8" type="qcurve" name="ab01"/>
      <point x="198" y="-8"/>
      <point x="137" y="8"/>
      <point x="115.0" y="19.5" type="qcurve" smooth="yes" name="inserted"/>
      <point x="93" y="31"/>
      <point x="64" y="55"/>
    </contour>
  </outline>
</glyph>
<glyph name="W" format="1">
  <advance width="1220"/>
  <unicode hex="0057"/>
  <outline>
    <contour>
      <point x="137" y="700" type="line" name="at01"/>
      <point x="311" y="700" type="line"/>
      <point x="309" y="686" type="line" name="sh03"/>
      <point x="233" y="686" type="line" name="sh02"/>
      <point x="279" y="519"/>
      <point x="371" y="190"/>
      <point x="421" y="25" type="qcurve"/>
      <point x="426" y="0" type="line" name="sh04"/>
      <point x="481" y="108"/>
      <point x="604" y="319"/>
      <point x="664" y="425" type="qcurve" name="ih04"/>
      <point x="646" y="490"/>
      <point x="609" y="620"/>
      <point x="590" y="686" type="qcurve" name="dh01"/>
      <point x="511" y="686" type="line" name="sh05"/>
      <point x="513" y="700" type="line" name="sv01"/>
      <point x="687" y="700" type="line"/>
      <point x="685" y="686" type="line" name="sh07"/>
      <point x="605" y="686" type="line" name="sh06"/>
      <point x="651" y="519"/>
      <point x="743" y="190"/>
      <point x="793" y="25" type="qcurve"/>
      <point x="798" y="0" type="line" name="sh08"/>
      <point x="811" y="25" type="line"/>
      <point x="904" y="191"/>
      <point x="1089" y="519"/>
      <point x="1183" y="686" type="qcurve" name="sh09"/>
      <point x="1111" y="686" type="line" name="sh10"/>
      <point x="1113" y="700" type="line" name="sv02"/>
      <point x="1287" y="700" type="line"/>
      <point x="1285" y="686" type="line" name="sh11"/>
      <point x="1198" y="686" type="line" name="dh02"/>
      <point x="1097" y="505"/>
      <point x="895" y="148"/>
      <point x="794" y="-32" type="qcurve" name="ih01"/>
      <point x="675" y="385" type="line"/>
      <point x="669" y="407" type="line" name="ih02"/>
      <point x="606" y="297"/>
      <point x="484" y="78"/>
      <point x="422" y="-32" type="qcurve" name="ih03"/>
      <point x="371" y="148"/>
      <point x="268" y="505"/>
      <point x="217" y="686" type="qcurve" name="sh01"/>
      <point x="135" y="686" type="line" name="sh12"/>
    </contour>
  </outline>
</glyph>
<glyph name="X" format="1">
  <advance width="710"/>
  <unicode hex="0058"/>
  <outline>
    <contour>
      <point x="133" y="700" type="line" name="at01"/>
      <point x="307" y="700" type="line"/>
      <point x="305" y="686" type="line" name="sh03"/>
      <point x="246" y="686" type="line" name="sh02"/>
      <point x="286" y="609"/>
      <point x="363" y="457"/>
      <point x="402" y="381" type="qcurve"/>
      <point x="408" y="368" type="line" name="ih02"/>
      <point x="418" y="381" type="line"/>
      <point x="656" y="686" type="line" name="sh06"/>
      <point x="597" y="686" type="line" name="sh07"/>
      <point x="599" y="700" type="line" name="sv02"/>
      <point x="773" y="700" type="line"/>
      <point x="771" y="686" type="line" name="sh09"/>
      <point x="672" y="686" type="line" name="sh08"/>
      <point x="607" y="602"/>
      <point x="479" y="439"/>
      <point x="415" y="356" type="qcurve" name="sh04"/>
      <point x="458" y="269"/>
      <point x="545" y="100"/>
      <point x="589" y="14" type="qcurve" name="dh02"/>
      <point x="676" y="14" type="line"/>
      <point x="675" y="0" type="line"/>
      <point x="501" y="0" type="line" name="sv01"/>
      <point x="502" y="14" type="line" name="sv04"/>
      <point x="572" y="14" type="line" name="sh05"/>
      <point x="436" y="279" type="line"/>
      <point x="427" y="296"/>
      <point x="411" y="332"/>
      <point x="401" y="348" type="qcurve" name="ih03"/>
      <point x="392" y="335" type="line"/>
      <point x="329" y="254"/>
      <point x="203" y="95"/>
      <point x="140" y="14" type="qcurve" name="sh01"/>
      <point x="210" y="14" type="line"/>
      <point x="209" y="0" type="line"/>
      <point x="35" y="0" type="line" name="ab01"/>
      <point x="36" y="14" type="line" name="sv03"/>
      <point x="125" y="14" type="line" name="dh01"/>
      <point x="395" y="360" type="line" name="ih01"/>
      <point x="230" y="686" type="line" name="sh10"/>
      <point x="131" y="686" type="line" name="sh11"/>
    </contour>
  </outline>
</glyph>
<glyph name="bracketleft" format="1">
  <advance width="338"/>
  <unicode hex="005B"/>
  <outline>
    <contour>
      <point x="20" y="-149" type="line" name="ah01"/>
      <point x="145" y="746" type="line" name="sh01"/>
      <point x="308" y="746" type="line" name="sh03"/>
      <point x="306" y="732" type="line"/>
      <point x="159" y="732" type="line" name="sh05"/>
      <point x="38" y="-135" type="line" name="sh04"/>
      <point x="185" y="-135" type="line"/>
      <point x="183" y="-149" type="line" name="sh02"/>
    </contour>
  </outline>
</glyph>
<glyph name="backslash" format="1">
  <advance width="320"/>
  <unicode hex="005C"/>
  <outline>
    <contour>
      <point x="84" y="736" type="line" name="sh01"/>
      <point x="127" y="546"/>
      <point x="212" y="171"/>
      <point x="255" y="-19" type="qcurve" name="sh02"/>
      <point x="241" y="-19" type="line" name="sh03"/>
      <point x="198" y="171"/>
      <point x="113" y="546"/>
      <point x="70" y="736" type="qcurve" name="ah01"/>
    </contour>
  </outline>
</glyph>
<glyph name="e" format="1">
  <advance width="435"/>
  <unicode hex="0065"/>
  <outline>
    <contour>
      <point x="281" y="369" type="qcurve" name="sv01"/>
      <point x="236" y="369"/>
      <point x="156" y="328" name="fh01"/>
      <point x="127.0" y="295.0" type="qcurve" smooth="yes" name="inserted"/>
      <point x="98" y="262" name="fh02"/>
      <point x="69" y="178"/>
      <point x="75" y="135" type="qcurve" name="sh01"/>
      <point x="162" y="168" name="fv01"/>
      <point x="332" y="233"/>
      <point x="418" y="266" type="qcurve" name="sh02"/>
      <point x="404" y="312"/>
      <point x="331" y="369"/>
    </contour>
    <contour>
      <point x="435" y="259" type="qcurve" name="dh02"/>
      <point x="345" y="224"/>
      <point x="168" y="157"/>
      <point x="78" y="122" type="qcurve" name="sh03"/>
      <point x="91" y="71"/>
      <point x="172" y="8"/>
      <point x="230" y="8" type="qcurve" name="sv02"/>
      <point x="266" y="8"/>
      <point x="334" y="34"/>
      <point x="361" y="57" type="qcurve" name="sv03"/>
      <point x="363" y="54"/>
      <point x="367" y="49" name="sh04"/>
      <point x="369" y="46" type="qcurve"/>
      <point x="339" y="22"/>
      <point x="268" y="-6"/>
      <point x="229" y="-6" type="qcurve" name="ab01"/>
      <point x="188" y="-6"/>
      <point x="122" y="24"/>
      <point x="99.5" y="50.5" type="qcurve" smooth="yes" name="inserted"/>
      <point x="77" y="77"/>
      <point x="56" y="147"/>
      <point x="62" y="188" type="qcurve" name="dh01"/>
      <point x="68" y="228"/>
      <point x="108" y="300" name="fh03"/>
      <point x="138.0" y="326.0" type="qcurve" smooth="yes" name="inserted"/>
      <point x="168" y="352"/>
      <point x="242" y="383"/>
      <point x="283" y="383" type="qcurve" name="at01"/>
      <point x="341" y="383"/>
      <point x="423" y="314"/>
    </contour>
  </outline>
</glyph>
<glyph name="f" format="1">
  <advance width="281"/>
  <unicode hex="0066"/>
  <outline>
    <contour>
      <point x="36" y="14" type="line" name="sv01"/>
      <point x="97" y="14" type="line" name="ah01"/>
      <point x="146" y="361" type="line" name="ih01"/>
      <point x="85" y="361" type="line" name="sh02"/>
      <point x="87" y="375" type="line"/>
      <point x="148" y="375" type="line" name="ih02"/>
      <point x="168" y="518" type="line" name="sh01"/>
      <point x="176" y="573"/>
      <point x="217" y="659"/>
      <point x="246.5" y="688.0" type="qcurve" smooth="yes" name="inserted"/>
      <point x="276" y="717"/>
      <point x="348" y="748"/>
      <point x="386" y="750" type="qcurve" name="sh03"/>
      <point x="384" y="736" type="line" name="sv02"/>
      <point x="350" y="736"/>
      <point x="284" y="706"/>
      <point x="256.5" y="678.0" type="qcurve" smooth="yes" name="inserted"/>
      <point x="229" y="650"/>
      <point x="190" y="571"/>
      <point x="183" y="522" type="qcurve" name="sh05"/>
      <point x="162" y="375" type="line" name="ih03"/>
      <point x="292" y="375" type="line" name="sh06"/>
      <point x="290" y="361" type="line"/>
      <point x="160" y="361" type="line" name="ih04"/>
      <point x="111" y="14" type="line" name="sh04"/>
      <point x="210" y="14" type="line"/>
      <point x="209" y="0" type="line"/>
      <point x="35" y="0" type="line" name="ab01"/>
    </contour>
  </outline>
</glyph>
<glyph name="i" format="1">
  <advance width="244"/>
  <unicode hex="0069"/>
  <outline>
    <contour>
      <point x="36" y="14" type="line" name="sh01"/>
      <point x="118" y="14" type="line" name="ah01"/>
      <point x="167" y="361" type="line" name="sh02"/>
      <point x="85" y="361" type="line" name="sh03"/>
      <point x="87" y="375" type="line" name="at01"/>
      <point x="183" y="375" type="line" name="sh05"/>
      <point x="132" y="14" type="line" name="sh04"/>
      <point x="210" y="14" type="line"/>
      <point x="209" y="0" type="line"/>
      <point x="35" y="0" type="line" name="ab01"/>
    </contour>
    <contour>
      <point x="174" y="500" type="qcurve" name="sh06"/>
      <point x="175" y="508"/>
      <point x="189" y="520"/>
      <point x="197" y="520" type="qcurve" name="sv01"/>
      <point x="205" y="520"/>
      <point x="215" y="508"/>
      <point x="214" y="500" type="qcurve" name="sh07"/>
      <point x="212" y="492"/>
      <point x="199" y="480"/>
      <point x="191" y="480" type="qcurve" name="av01"/>
      <point x="183" y="480"/>
      <point x="172" y="492"/>
    </contour>
  </outline>
</glyph>
<glyph name="j" format="1">
  <advance width="166"/>
  <unicode hex="006A"/>
  <outline>
    <contour>
      <point x="62" y="375" type="line" name="at01"/>
      <point x="158" y="375" type="line" name="sh02"/>
      <point x="105" y="-7" type="line" name="sh01"/>
      <point x="97" y="-64"/>
      <point x="54" y="-151"/>
      <point x="24" y="-180" type="qcurve" name="av02"/>
      <point x="13" y="-171" type="line" name="sv01"/>
      <point x="42" y="-143"/>
      <point x="83" y="-62"/>
      <point x="90" y="-11" type="qcurve" name="ah01"/>
      <point x="142" y="361" type="line" name="sh03"/>
      <point x="60" y="361" type="line" name="sh04"/>
    </contour>
    <contour>
      <point x="149" y="500" type="qcurve" name="sh05"/>
      <point x="150" y="508"/>
      <point x="164" y="520"/>
      <point x="172" y="520" type="qcurve" name="sv02"/>
      <point x="180" y="520"/>
      <point x="190" y="508"/>
      <point x="189" y="500" type="qcurve" name="sh06"/>
      <point x="187" y="492"/>
      <point x="174" y="480"/>
      <point x="166" y="480" type="qcurve" name="av01"/>
      <point x="158" y="480"/>
      <point x="147" y="492"/>
    </contour>
  </outline>
</glyph>
<glyph name="m" format="1">
  <advance width="800"/>
  <unicode hex="006D"/>
  <outline>
    <contour>
      <point x="592" y="14" type="line"/>
      <point x="671" y="14" type="line" name="sh01"/>
      <point x="708" y="277" type="line" name="sh02"/>
      <point x="712" y="313"/>
      <point x="670" y="366"/>
      <point x="626" y="368" type="qcurve" name="sv03"/>
      <point x="593" y="368"/>
      <point x="530" y="347"/>
      <point x="504.5" y="328.0" type="qcurve" smooth="yes" name="inserted"/>
      <point x="479" y="309"/>
      <point x="443" y="257"/>
      <point x="437" y="226" type="qcurve" name="sh04"/>
      <point x="407" y="14" type="line" name="sh03"/>
      <point x="488" y="14" type="line"/>
      <point x="487" y="0" type="line"/>
      <point x="313" y="0" type="line" name="sv04"/>
      <point x="314" y="14" type="line"/>
      <point x="393" y="14" type="line" name="ih01"/>
      <point x="430" y="277" type="line" name="sh05"/>
      <point x="434" y="313"/>
      <point x="392" y="366"/>
      <point x="348" y="368" type="qcurve" name="sv02"/>
      <point x="314" y="368"/>
      <point x="250" y="346"/>
      <point x="224.0" y="326.5" type="qcurve" smooth="yes" name="inserted"/>
      <point x="198" y="307" name="fh01"/>
      <point x="163" y="252" name="fh02"/>
      <point x="158" y="220" type="qcurve" name="fh03"/>
      <point x="129" y="14" type="line" name="sh06"/>
      <point x="210" y="14" type="line"/>
      <point x="209" y="0" type="line"/>
      <point x="35" y="0" type="line" name="ab01"/>
      <point x="36" y="14" type="line" name="sv01"/>
      <point x="115" y="14" type="line" name="dh01"/>
      <point x="164" y="361" type="line" name="sh07"/>
      <point x="89" y="361" type="line" name="sv05"/>
      <point x="91" y="375" type="line" name="at02"/>
      <point x="174" y="375" type="line"/>
      <point x="169" y="322" type="line" name="sh08"/>
      <point x="167" y="309" name="fh04"/>
      <point x="165" y="290"/>
      <point x="163" y="277" type="qcurve" name="iv01"/>
      <point x="190" y="324" name="fv01"/>
      <point x="286" y="382" name="fh05"/>
      <point x="343" y="382" type="qcurve" name="at01"/>
      <point x="392" y="382"/>
      <point x="445" y="327" name="fh06"/>
      <point x="444" y="282" type="qcurve" name="sh09"/>
      <point x="471" y="327"/>
      <point x="566" y="382"/>
      <point x="621" y="382" type="qcurve" name="sv06"/>
      <point x="674" y="382"/>
      <point x="727" y="320"/>
      <point x="721" y="270" type="qcurve" name="sh10"/>
      <point x="685" y="14" type="line" name="dh02"/>
      <point x="766" y="14" type="line"/>
      <point x="765" y="0" type="line"/>
      <point x="591" y="0" type="line" name="sv07"/>
    </contour>
  </outline>
</glyph>
<glyph name="q" format="1">
  <advance width="532"/>
  <unicode hex="0071"/>
  <outline>
    <contour>
      <point x="322" y="-236" type="line" name="sv01"/>
      <point x="410" y="-236" type="line" name="sh01"/>
      <point x="452" y="61" type="line"/>
      <point x="461" y="115" type="line" name="ih01"/>
      <point x="432" y="61"/>
      <point x="326" y="-8"/>
      <point x="263" y="-8" type="qcurve" name="ab01"/>
      <point x="222" y="-8"/>
      <point x="156" y="23"/>
      <point x="133.5" y="49.0" type="qcurve" smooth="yes" name="inserted"/>
      <point x="111" y="75"/>
      <point x="90" y="146"/>
      <point x="96" y="187" type="qcurve" name="dh01"/>
      <point x="102" y="227"/>
      <point x="142" y="298"/>
      <point x="172.0" y="324.5" type="qcurve" smooth="yes" name="inserted"/>
      <point x="202" y="351" name="fh01"/>
      <point x="276" y="381"/>
      <point x="317" y="381" type="qcurve" name="at01"/>
      <point x="380" y="381" name="fh02"/>
      <point x="468" y="312" name="fh03"/>
      <point x="482" y="257" type="qcurve" name="sh02"/>
      <point x="486" y="286"/>
      <point x="497" y="346"/>
      <point x="501" y="375" type="qcurve" name="sh03"/>
      <point x="584" y="375" type="line" name="at02"/>
      <point x="582" y="361" type="line" name="sh05"/>
      <point x="509" y="361" type="line" name="sh04"/>
      <point x="425" y="-236" type="line" name="dh02"/>
      <point x="496" y="-236" type="line"/>
      <point x="495" y="-250" type="line"/>
      <point x="321" y="-250" type="line" name="ab02"/>
    </contour>
    <contour>
      <point x="110" y="187" type="qcurve" name="sh06"/>
      <point x="105" y="149"/>
      <point x="123" y="84"/>
      <point x="144.0" y="59.0" type="qcurve" smooth="yes" name="inserted"/>
      <point x="165" y="34" name="fh04"/>
      <point x="226" y="6"/>
      <point x="264" y="6" type="qcurve" name="sv02"/>
      <point x="301" y="6"/>
      <point x="372" y="34"/>
      <point x="400.0" y="59.0" type="qcurve" smooth="yes" name="inserted"/>
      <point x="428" y="84"/>
      <point x="466" y="149"/>
      <point x="471" y="187" type="qcurve" name="ih02"/>
      <point x="476" y="224"/>
      <point x="457" y="290"/>
      <point x="436.0" y="314.5" type="qcurve" smooth="yes" name="inserted"/>
      <point x="415" y="339"/>
      <point x="352" y="367"/>
      <point x="315" y="367" type="qcurve" name="sv03"/>
      <point x="277" y="367"/>
      <point x="208" y="339"/>
      <point x="180.0" y="314.5" type="qcurve" smooth="yes" name="inserted"/>
      <point x="152" y="290" name="fh05"/>
      <point x="115" y="224"/>
    </contour>
  </outline>
</glyph>
<glyph name="v" format="1">
  <advance width="590"/>
  <unicode hex="0076"/>
  <outline>
    <contour>
      <point x="90" y="375" type="line" name="at01"/>
      <point x="251" y="375" type="line"/>
      <point x="249" y="361" type="line" name="sh02"/>
      <point x="175" y="361" type="line" name="sh01"/>
      <point x="207" y="273"/>
      <point x="270" y="96"/>
      <point x="302" y="8" type="qcurve" name="ih01"/>
      <point x="354" y="90"/>
      <point x="470" y="270"/>
      <point x="527" y="361" type="qcurve" name="sh03"/>
      <point x="469" y="361" type="line" name="sh04"/>
      <point x="471" y="375" type="line" name="sv01"/>
      <point x="610" y="375" type="line"/>
      <point x="608" y="361" type="line" name="sh05"/>
      <point x="542" y="361" type="line" name="dh02"/>
      <point x="480" y="264"/>
      <point x="358" y="74"/>
      <point x="298" y="-23" type="qcurve" name="sh06"/>
      <point x="263" y="74"/>
      <point x="194" y="264"/>
      <point x="160" y="361" type="qcurve" name="dh01"/>
      <point x="88" y="361" type="line" name="sh07"/>
    </contour>
  </outline>
</glyph>
<glyph name="x" format="1">
  <advance width="488"/>
  <unicode hex="0078"/>
  <outline>
    <contour>
      <point x="87" y="375" type="line" name="at01"/>
      <point x="261" y="375" type="line"/>
      <point x="259" y="361" type="line" name="sh03"/>
      <point x="171" y="361" type="line" name="sh02"/>
      <point x="267" y="198" type="line" name="ih02"/>
      <point x="407" y="361" type="line" name="sh06"/>
      <point x="329" y="361" type="line" name="sh07"/>
      <point x="331" y="375" type="line" name="sv01"/>
      <point x="505" y="375" type="line"/>
      <point x="503" y="361" type="line" name="sh09"/>
      <point x="424" y="361" type="line" name="sh08"/>
      <point x="274" y="186" type="line" name="sh04"/>
      <point x="299" y="142"/>
      <point x="350" y="58"/>
      <point x="375" y="14" type="qcurve" name="dh02"/>
      <point x="454" y="14" type="line" name="sh10"/>
      <point x="453" y="0" type="line"/>
      <point x="279" y="0" type="line" name="sv02"/>
      <point x="280" y="14" type="line" name="sh11"/>
      <point x="359" y="14" type="line" name="sh05"/>
      <point x="335" y="56"/>
      <point x="288" y="135"/>
      <point x="264" y="175" type="qcurve" name="ih03"/>
      <point x="229" y="134"/>
      <point x="161" y="54"/>
      <point x="126" y="14" type="qcurve" name="sh01"/>
      <point x="210" y="14" type="line" name="sh12"/>
      <point x="209" y="0" type="line"/>
      <point x="35" y="0" type="line" name="ab01"/>
      <point x="36" y="14" type="line" name="sh13"/>
      <point x="108" y="14" type="line" name="dh01"/>
      <point x="146" y="57"/>
      <point x="219" y="143"/>
      <point x="257" y="187" type="qcurve" name="ih01"/>
      <point x="231" y="231"/>
      <point x="179" y="316"/>
      <point x="153" y="361" type="qcurve" name="sh14"/>
      <point x="85" y="361" type="line" name="sh15"/>
    </contour>
  </outline>
</glyph>
<glyph name="braceleft" format="1">
  <advance width="272"/>
  <unicode hex="007B"/>
  <outline>
    <contour>
      <point x="91" y="287" type="qcurve" name="sh01"/>
      <point x="95" y="311" type="line" name="iv01"/>
      <point x="119" y="312"/>
      <point x="153" y="339"/>
      <point x="165.0" y="359.0" type="qcurve" smooth="yes" name="inserted"/>
      <point x="177" y="379"/>
      <point x="190" y="426"/>
      <point x="193" y="446" type="qcurve" name="ih01"/>
      <point x="218" y="628" type="line" name="sh02"/>
      <point x="224" y="673"/>
      <point x="245" y="722"/>
      <point x="259.0" y="732.5" type="qcurve" smooth="yes" name="inserted"/>
      <point x="273" y="743"/>
      <point x="304" y="746"/>
      <point x="321" y="746" type="qcurve"/>
      <point x="358" y="746" type="line" name="sh03"/>
      <point x="356" y="732" type="line" name="sv01"/>
      <point x="299" y="732" type="line"/>
      <point x="268" y="732"/>
      <point x="239" y="680"/>
      <point x="231" y="620" type="qcurve" name="sh05"/>
      <point x="210" y="470" type="line" name="ih02"/>
      <point x="203" y="423"/>
      <point x="184" y="363"/>
      <point x="172.0" y="344.5" type="qcurve" smooth="yes" name="inserted"/>
      <point x="160" y="326"/>
      <point x="134" y="306"/>
      <point x="120" y="299" type="qcurve" name="ih03"/>
      <point x="129" y="292"/>
      <point x="146" y="277"/>
      <point x="152.5" y="265.5" type="qcurve" smooth="yes" name="inserted"/>
      <point x="159" y="254"/>
      <point x="167" y="219"/>
      <point x="167" y="194" type="qcurve"/>
      <point x="166" y="180"/>
      <point x="165" y="148"/>
      <point x="162" y="128" type="qcurve" name="ih04"/>
      <point x="141" y="-22" type="line"/>
      <point x="139" y="-39"/>
      <point x="136" y="-67"/>
      <point x="136" y="-79" type="qcurve" name="sh04"/>
      <point x="136" y="-108"/>
      <point x="154" y="-134"/>
      <point x="177" y="-134" type="qcurve"/>
      <point x="234" y="-134" type="line" name="sh06"/>
      <point x="232" y="-148" type="line" name="av01"/>
      <point x="195" y="-148" type="line"/>
      <point x="179" y="-148"/>
      <point x="153" y="-146"/>
      <point x="143.5" y="-139.5" type="qcurve" smooth="yes" name="inserted"/>
      <point x="134" y="-133"/>
      <point x="124" y="-103"/>
      <point x="124" y="-74" type="qcurve" name="ah01"/>
      <point x="124" y="-58"/>
      <point x="127" y="-19"/>
      <point x="131" y="6" type="qcurve"/>
      <point x="151" y="152" type="line" name="ih05"/>
      <point x="152.5" y="161.0" name="inserted"/>
      <point x="154.0" y="181.0"/>
      <point x="154" y="192" type="qcurve"/>
      <point x="154" y="209"/>
      <point x="148" y="243"/>
      <point x="141.0" y="256.0" type="qcurve" smooth="yes" name="inserted"/>
      <point x="134" y="269"/>
      <point x="109" y="286"/>
    </contour>
  </outline>
</glyph>
<glyph name="braceright" format="1">
  <advance width="320"/>
  <unicode hex="007D"/>
  <outline>
    <contour>
      <point x="355" y="311" type="qcurve" name="sh01"/>
      <point x="351" y="287" type="line" name="sv01"/>
      <point x="319" y="285"/>
      <point x="281" y="244"/>
      <point x="270.5" y="216.5" type="qcurve" smooth="yes" name="inserted"/>
      <point x="260" y="189"/>
      <point x="251" y="133"/>
      <point x="248" y="116" type="qcurve" name="ih01"/>
      <point x="228" y="-30" type="line" name="sh02"/>
      <point x="222" y="-77"/>
      <point x="200" y="-125"/>
      <point x="186.5" y="-135.5" type="qcurve" smooth="yes" name="inserted"/>
      <point x="173" y="-146"/>
      <point x="141" y="-148"/>
      <point x="125" y="-148" type="qcurve"/>
      <point x="88" y="-148" type="line" name="sh03"/>
      <point x="90" y="-134" type="line" name="sv02"/>
      <point x="147" y="-134" type="line"/>
      <point x="178" y="-134"/>
      <point x="207" y="-82"/>
      <point x="215" y="-22" type="qcurve" name="sh05"/>
      <point x="241" y="165" type="line" name="ih02"/>
      <point x="245" y="199"/>
      <point x="265" y="245"/>
      <point x="277.5" y="260.5" type="qcurve" smooth="yes" name="inserted"/>
      <point x="290" y="276"/>
      <point x="315" y="294"/>
      <point x="326" y="299" type="qcurve" name="ih04"/>
      <point x="317" y="304"/>
      <point x="300" y="318"/>
      <point x="293.0" y="329.5" type="qcurve" smooth="yes" name="inserted"/>
      <point x="286" y="341"/>
      <point x="278" y="375"/>
      <point x="278" y="401" type="qcurve"/>
      <point x="278.0" y="415.0" name="inserted"/>
      <point x="281.0" y="449.5"/>
      <point x="284" y="470" type="qcurve" name="ih03"/>
      <point x="305" y="620" type="line"/>
      <point x="307" y="637"/>
      <point x="310" y="665"/>
      <point x="310" y="676" type="qcurve" name="sh04"/>
      <point x="310.0" y="704.0" name="inserted"/>
      <point x="289.5" y="732.0"/>
      <point x="269" y="732" type="qcurve"/>
      <point x="212" y="732" type="line" name="sh06"/>
      <point x="214" y="746" type="line" name="at01"/>
      <point x="251" y="746" type="line"/>
      <point x="265" y="746"/>
      <point x="291" y="745"/>
      <point x="301.0" y="738.5" type="qcurve" smooth="yes" name="inserted"/>
      <point x="311" y="732"/>
      <point x="323" y="703"/>
      <point x="323" y="676" type="qcurve" name="ah01"/>
      <point x="323.0" y="666.0" name="inserted"/>
      <point x="321.5" y="642.0"/>
      <point x="320" y="628" type="qcurve"/>
      <point x="300" y="482" type="line" name="ih05"/>
      <point x="298" y="468"/>
      <point x="292" y="428"/>
      <point x="292" y="406" type="qcurve" name="mh01"/>
      <point x="292" y="389"/>
      <point x="297" y="355"/>
      <point x="304.0" y="342.0" type="qcurve" smooth="yes" name="inserted"/>
      <point x="311" y="329"/>
      <point x="336" y="312"/>
    </contour>
  </outline>
</glyph>
<glyph name="exclamdown" format="1">
  <advance width="200"/>
  <unicode hex="00A1"/>
  <outline>
    <contour>
      <point x="204" y="504" type="qcurve" name="av01"/>
      <point x="212" y="504"/>
      <point x="222" y="492"/>
      <point x="221" y="484" type="qcurve" name="sh01"/>
      <point x="219" y="475"/>
      <point x="206" y="464"/>
      <point x="198" y="464" type="qcurve" name="sv01"/>
      <point x="191" y="464"/>
      <point x="180" y="475"/>
      <point x="182" y="484" type="qcurve" name="ah01"/>
      <point x="183" y="492"/>
      <point x="197" y="504"/>
    </contour>
    <contour>
      <point x="179" y="374" type="line" name="sh02"/>
      <point x="193" y="374" type="line" name="sh03"/>
      <point x="111" y="-210" type="line" name="sh04"/>
      <point x="97" y="-210" type="line" name="sh05"/>
    </contour>
  </outline>
</glyph>
<glyph name="section" format="1">
  <advance width="500"/>
  <unicode hex="00A7"/>
  <outline>
    <contour>
      <point x="218" y="311" type="qcurve"/>
      <point x="229" y="286"/>
      <point x="272" y="262"/>
      <point x="299" y="262" type="qcurve" name="sv01"/>
      <point x="321" y="262"/>
      <point x="361" y="281"/>
      <point x="375.5" y="297.0" type="qcurve" smooth="yes" name="inserted"/>
      <point x="390" y="313"/>
      <point x="407" y="351"/>
      <point x="407" y="371" type="qcurve" name="sh01"/>
      <point x="407" y="414"/>
      <point x="351" y="459"/>
      <point x="315" y="459" type="qcurve" name="sv03"/>
      <point x="290" y="459"/>
      <point x="252" y="438"/>
      <point x="238.5" y="422.0" type="qcurve" smooth="yes" name="inserted"/>
      <point x="225" y="406" name="fh01"/>
      <point x="211" y="367"/>
      <point x="211" y="348" type="qcurve" name="sh02"/>
      <point x="211.0" y="337.0" name="inserted"/>
      <point x="214.5" y="318.5"/>
    </contour>
    <contour>
      <point x="271" y="154" type="qcurve"/>
      <point x="205" y="304" type="line"/>
      <point x="200.5" y="314.5" name="inserted"/>
      <point x="196.0" y="336.0"/>
      <point x="196" y="347" type="qcurve" name="dh01"/>
      <point x="196" y="369"/>
      <point x="214" y="413"/>
      <point x="230.5" y="431.0" type="qcurve" smooth="yes" name="inserted"/>
      <point x="247" y="449" name="fh02"/>
      <point x="293" y="472"/>
      <point x="320" y="472" type="qcurve" name="sv02"/>
      <point x="336.5" y="472.0" name="inserted"/>
      <point x="365.5" y="464.0"/>
      <point x="378" y="456" type="qcurve" name="ih02"/>
      <point x="367" y="480"/>
      <point x="343" y="534"/>
      <point x="333.0" y="559.5" type="qcurve" smooth="yes" name="inserted"/>
      <point x="323" y="585"/>
      <point x="310" y="629"/>
      <point x="310" y="642" type="qcurve" name="ih01"/>
      <point x="310" y="661"/>
      <point x="327" y="688"/>
      <point x="340.5" y="697.5" type="qcurve" smooth="yes" name="inserted"/>
      <point x="354" y="707" name="fv01"/>
      <point x="387" y="722"/>
      <point x="402" y="730" type="qcurve" name="sv04"/>
      <point x="403" y="728"/>
      <point x="405" y="722"/>
      <point x="407" y="718" type="qcurve" name="sh03"/>
      <point x="393" y="710"/>
      <point x="364" y="697"/>
      <point x="351.5" y="688.5" type="qcurve" smooth="yes" name="inserted"/>
      <point x="339" y="680"/>
      <point x="323" y="659"/>
      <point x="323" y="643" type="qcurve" name="sh04"/>
      <point x="323" y="628"/>
      <point x="341" y="574"/>
      <point x="354.5" y="542.0" type="qcurve" smooth="yes" name="inserted"/>
      <point x="368" y="510" name="fh03"/>
      <point x="399" y="443" name="fh04"/>
      <point x="412" y="415" type="qcurve"/>
      <point x="416.5" y="404.5" name="inserted"/>
      <point x="421.0" y="383.5"/>
      <point x="421" y="373" type="qcurve" name="dh02"/>
      <point x="421" y="351"/>
      <point x="402" y="306"/>
      <point x="384.5" y="288.0" type="qcurve" smooth="yes" name="inserted"/>
      <point x="367" y="270"/>
      <point x="321" y="247"/>
      <point x="294" y="247" type="qcurve" name="av01"/>
      <point x="278.5" y="247.0" name="inserted"/>
      <point x="250.5" y="255.5"/>
      <point x="238" y="264" type="qcurve" name="ih04"/>
      <point x="287" y="154" type="line"/>
      <point x="298" y="130"/>
      <point x="306" y="92"/>
      <point x="306" y="79" type="qcurve" name="ih03"/>
      <point x="306" y="59"/>
      <point x="289" y="32" name="fh05"/>
      <point x="275.5" y="21.5" type="qcurve" smooth="yes" name="inserted"/>
      <point x="262" y="11"/>
      <point x="230" y="-4"/>
      <point x="216" y="-10" type="qcurve" name="ab01"/>
      <point x="210" y="2" type="line" name="sh05"/>
      <point x="223" y="9"/>
      <point x="253" y="23"/>
      <point x="265.5" y="31.0" type="qcurve" smooth="yes" name="inserted"/>
      <point x="278" y="39"/>
      <point x="294" y="61"/>
      <point x="294" y="77" type="qcurve" name="sh06"/>
      <point x="294.0" y="90.0" name="inserted"/>
      <point x="282.5" y="128.5"/>
    </contour>
  </outline>
</glyph>
<glyph name="ordfeminine" format="1">
  <advance width="585"/>
  <unicode hex="00AA"/>
  <outline>
    <contour>
      <point x="103" y="442" type="qcurve" name="dh01"/>
      <point x="107" y="470"/>
      <point x="136" y="522" name="fh01"/>
      <point x="157.5" y="541.0" type="qcurve" smooth="yes" name="inserted"/>
      <point x="179" y="560"/>
      <point x="233" y="582"/>
      <point x="262" y="582" type="qcurve" name="av01"/>
      <point x="285" y="582"/>
      <point x="323" y="569"/>
      <point x="338.5" y="557.0" type="qcurve" smooth="yes" name="inserted"/>
      <point x="354" y="545"/>
      <point x="375" y="513"/>
      <point x="380" y="494" type="qcurve" name="sh02"/>
      <point x="383" y="514"/>
      <point x="391" y="556"/>
      <point x="395" y="576" type="qcurve" name="sh03"/>
      <point x="402" y="576" type="line" name="sh04"/>
      <point x="365" y="316" type="line" name="dh02"/>
      <point x="418" y="316" type="line"/>
      <point x="417" y="306" type="line"/>
      <point x="354" y="306" type="line" name="sh01"/>
      <point x="360" y="345" type="line"/>
      <point x="361" y="356"/>
      <point x="365" y="379"/>
      <point x="367" y="390" type="qcurve" name="ih01"/>
      <point x="346" y="351"/>
      <point x="269" y="302"/>
      <point x="223" y="302" type="qcurve" name="sv01"/>
      <point x="194" y="302"/>
      <point x="146" y="323"/>
      <point x="130.0" y="342.5" type="qcurve" smooth="yes" name="inserted"/>
      <point x="114" y="362"/>
      <point x="98" y="412"/>
    </contour>
    <contour>
      <point x="113" y="442" type="qcurve" name="sh05"/>
      <point x="109" y="414"/>
      <point x="122" y="367"/>
      <point x="137.5" y="349.5" type="qcurve" smooth="yes" name="inserted"/>
      <point x="153" y="332"/>
      <point x="197" y="312"/>
      <point x="224" y="312" type="qcurve" name="sv02"/>
      <point x="251" y="312"/>
      <point x="302" y="332"/>
      <point x="322.0" y="349.5" type="qcurve" smooth="yes" name="inserted"/>
      <point x="342" y="367"/>
      <point x="370" y="414"/>
      <point x="373" y="442" type="qcurve" name="ih02"/>
      <point x="377" y="468"/>
      <point x="363" y="516"/>
      <point x="348.0" y="534.0" type="qcurve" smooth="yes" name="inserted"/>
      <point x="333" y="552"/>
      <point x="287" y="572"/>
      <point x="261" y="572" type="qcurve" name="sv03"/>
      <point x="233" y="572"/>
      <point x="184" y="552"/>
      <point x="163.5" y="534.0" type="qcurve" smooth="yes" name="inserted"/>
      <point x="143" y="516"/>
      <point x="116" y="468"/>
    </contour>
  </outline>
</glyph>
<glyph name="degree" format="1">
  <advance width="282"/>
  <unicode hex="00B0"/>
  <outline>
    <contour>
      <point x="139" y="498" type="qcurve" name="sv02"/>
      <point x="165" y="498"/>
      <point x="206" y="534"/>
      <point x="210" y="560" type="qcurve" name="sh02"/>
      <point x="214" y="586"/>
      <point x="183" y="622"/>
      <point x="157" y="622" type="qcurve" name="sv03"/>
      <point x="131" y="622"/>
      <point x="89" y="586"/>
      <point x="85" y="560" type="qcurve" name="sh03"/>
      <point x="81" y="534"/>
      <point x="113" y="498"/>
    </contour>
    <contour>
      <point x="71" y="559" type="qcurve" name="ah01"/>
      <point x="76" y="592"/>
      <point x="126" y="636"/>
      <point x="159" y="636" type="qcurve" name="av01"/>
      <point x="191" y="636"/>
      <point x="229" y="592"/>
      <point x="224" y="559" type="qcurve" name="sh01"/>
      <point x="219" y="527" name="fh01"/>
      <point x="170" y="484"/>
      <point x="138" y="484" type="qcurve" name="sv01"/>
      <point x="105" y="484"/>
      <point x="66" y="527"/>
    </contour>
  </outline>
</glyph>
<glyph name="threesuperior" format="1">
  <advance width="419"/>
  <unicode hex="00B3"/>
  <outline>
    <contour>
      <point x="140" y="558" type="qcurve" name="ih01"/>
      <point x="264" y="693" type="line" name="sh02"/>
      <point x="129" y="693" type="line" name="sv03"/>
      <point x="124" y="660" type="line" name="sh04"/>
      <point x="118" y="660" type="line" name="sh03"/>
      <point x="123" y="700" type="line" name="at01"/>
      <point x="281" y="700" type="line" name="sh01"/>
      <point x="165" y="576" type="line" name="sh05"/>
      <point x="188" y="577"/>
      <point x="225" y="563"/>
      <point x="238.5" y="549.5" type="qcurve" smooth="yes" name="inserted"/>
      <point x="252" y="536"/>
      <point x="264" y="498"/>
      <point x="261" y="476" type="qcurve" name="dh02"/>
      <point x="258" y="455"/>
      <point x="237" y="419"/>
      <point x="221.5" y="405.5" type="qcurve" smooth="yes" name="inserted"/>
      <point x="206" y="392"/>
      <point x="167" y="376"/>
      <point x="146" y="376" type="qcurve" name="sv01"/>
      <point x="124" y="376"/>
      <point x="89" y="394"/>
      <point x="78" y="409" type="qcurve" name="dh01"/>
      <point x="83" y="415" type="line" name="sh06"/>
      <point x="93" y="401"/>
      <point x="125" y="383"/>
      <point x="146" y="383" type="qcurve" name="sv04"/>
      <point x="165" y="383"/>
      <point x="202" y="398"/>
      <point x="216.5" y="410.5" type="qcurve" smooth="yes" name="inserted"/>
      <point x="231" y="423"/>
      <point x="251" y="457"/>
      <point x="254" y="476" type="qcurve" name="sh07"/>
      <point x="257" y="495"/>
      <point x="246" y="529"/>
      <point x="235.0" y="541.5" type="qcurve" smooth="yes" name="inserted"/>
      <point x="224" y="554"/>
      <point x="191" y="569"/>
      <point x="172" y="569" type="qcurve" name="sv02"/>
      <point x="164" y="569"/>
      <point x="148" y="563"/>
    </contour>
  </outline>
</glyph>
<glyph name="acute" format="1">
  <advance width="218"/>
  <unicode hex="00B4"/>
  <outline>
    <contour>
      <point x="100" y="479" type="line" name="ah01"/>
      <point x="127" y="512"/>
      <point x="181" y="579"/>
      <point x="208" y="612" type="qcurve" name="sh02"/>
      <point x="224" y="612" type="line" name="sh01"/>
      <point x="197" y="579"/>
      <point x="143" y="512"/>
      <point x="116" y="479" type="qcurve" name="sh03"/>
    </contour>
  </outline>
</glyph>
<glyph name="mu" format="1">
  <advance width="521"/>
  <unicode hex="00B5"/>
  <outline>
    <contour>
      <point x="396" y="375" type="line" name="sv01"/>
      <point x="489" y="375" type="line" name="dh02"/>
      <point x="439" y="14" type="line" name="sh01"/>
      <point x="516" y="14" type="line" name="sh02"/>
      <point x="514" y="0" type="line" name="ab01"/>
      <point x="431" y="0" type="line" name="sh05"/>
      <point x="435" y="53" type="line"/>
      <point x="440" y="98" type="line" name="sh04"/>
      <point x="413" y="50"/>
      <point x="316" y="-7"/>
      <point x="260" y="-7" type="qcurve" name="ab02"/>
      <point x="224" y="-7"/>
      <point x="176" y="23"/>
      <point x="166" y="49" type="qcurve" name="ih01"/>
      <point x="131" y="-201" type="line" name="sh07"/>
      <point x="117" y="-201" type="line" name="sh08"/>
      <point x="195" y="361" type="line" name="dh01"/>
      <point x="116" y="361" type="line" name="sh09"/>
      <point x="118" y="375" type="line" name="at01"/>
      <point x="211" y="375" type="line" name="sh06"/>
      <point x="173" y="98" type="line" name="ih02"/>
      <point x="169" y="62"/>
      <point x="211" y="9"/>
      <point x="255" y="7" type="qcurve" name="sv02"/>
      <point x="289" y="7"/>
      <point x="353" y="29"/>
      <point x="379.0" y="48.5" type="qcurve" smooth="yes" name="inserted"/>
      <point x="405" y="68"/>
      <point x="440" y="123"/>
      <point x="445" y="155" type="qcurve" name="ih03"/>
      <point x="473" y="361" type="line" name="sh03"/>
      <point x="394" y="361" type="line" name="sh10"/>
    </contour>
  </outline>
</glyph>
<glyph name="ordmasculine" format="1">
  <advance width="469"/>
  <unicode hex="00BA"/>
  <outline>
    <contour>
      <point x="110" y="442" type="qcurve" name="ah01"/>
      <point x="115" y="470"/>
      <point x="144" y="522"/>
      <point x="165.5" y="541.5" type="qcurve" smooth="yes" name="inserted"/>
      <point x="187" y="561"/>
      <point x="240" y="583"/>
      <point x="270" y="583" type="qcurve" name="av01"/>
      <point x="299" y="583"/>
      <point x="348" y="561"/>
      <point x="364.5" y="541.5" type="qcurve" smooth="yes" name="inserted"/>
      <point x="381" y="522"/>
      <point x="396" y="470"/>
      <point x="392" y="442" type="qcurve" name="sh01"/>
      <point x="387" y="412"/>
      <point x="359" y="362"/>
      <point x="337.0" y="342.5" type="qcurve" smooth="yes" name="inserted"/>
      <point x="315" y="323"/>
      <point x="260" y="302"/>
      <point x="231" y="302" type="qcurve" name="sv01"/>
      <point x="201" y="302"/>
      <point x="154" y="323"/>
      <point x="137.5" y="342.5" type="qcurve" smooth="yes" name="inserted"/>
      <point x="121" y="362"/>
      <point x="106" y="412"/>
    </contour>
    <contour>
      <point x="121" y="442" type="qcurve" name="sh02"/>
      <point x="117" y="414"/>
      <point x="130" y="367"/>
      <point x="145.0" y="349.5" type="qcurve" smooth="yes" name="inserted"/>
      <point x="160" y="332"/>
      <point x="204" y="312"/>
      <point x="232" y="312" type="qcurve" name="sv02"/>
      <point x="258" y="312"/>
      <point x="310" y="332"/>
      <point x="330.0" y="349.5" type="qcurve" smooth="yes" name="inserted"/>
      <point x="350" y="367"/>
      <point x="377" y="414"/>
      <point x="381" y="442" type="qcurve" name="sh03"/>
      <point x="385" y="468"/>
      <point x="371" y="516"/>
      <point x="356.0" y="534.0" type="qcurve" smooth="yes" name="inserted"/>
      <point x="341" y="552"/>
      <point x="295" y="572"/>
      <point x="268" y="572" type="qcurve" name="sv03"/>
      <point x="241" y="572"/>
      <point x="191" y="552"/>
      <point x="171.0" y="534.0" type="qcurve" smooth="yes" name="inserted"/>
      <point x="151" y="516" name="fh01"/>
      <point x="124" y="468"/>
    </contour>
  </outline>
</glyph>
<glyph name="threequarters" format="1">
  <advance width="1276"/>
  <unicode hex="00BE"/>
  <outline>
    <contour>
      <point x="223" y="485" type="qcurve" name="ih01"/>
      <point x="416" y="697" type="line" name="sh02"/>
      <point x="206" y="697" type="line" name="sv02"/>
      <point x="198" y="645" type="line" name="sh04"/>
      <point x="188" y="645" type="line" name="sh03"/>
      <point x="197" y="708" type="line" name="at01"/>
      <point x="443" y="708" type="line" name="sh01"/>
      <point x="262" y="513" type="line" name="sh05"/>
      <point x="297" y="515"/>
      <point x="356" y="492" name="fh01"/>
      <point x="376.5" y="471.5" type="qcurve" smooth="yes" name="inserted"/>
      <point x="397" y="451" name="fh02"/>
      <point x="416" y="391"/>
      <point x="412" y="357" type="qcurve" name="dh02"/>
      <point x="407" y="324"/>
      <point x="374" y="267"/>
      <point x="349.5" y="246.0" type="qcurve" smooth="yes" name="inserted"/>
      <point x="325" y="225"/>
      <point x="265" y="200"/>
      <point x="232" y="200" type="qcurve" name="sv01"/>
      <point x="198" y="200"/>
      <point x="143" y="228"/>
      <point x="125" y="251" type="qcurve" name="dh01"/>
      <point x="134" y="261" type="line" name="sh06"/>
      <point x="149" y="238"/>
      <point x="199" y="211"/>
      <point x="231" y="211" type="qcurve" name="sv03"/>
      <point x="262" y="211"/>
      <point x="319" y="234"/>
      <point x="342.5" y="254.0" type="qcurve" smooth="yes" name="inserted"/>
      <point x="366" y="274"/>
      <point x="396" y="327"/>
      <point x="401" y="357" type="qcurve" name="sh07"/>
      <point x="406" y="387"/>
      <point x="389" y="440"/>
      <point x="371.5" y="459.5" type="qcurve" smooth="yes" name="inserted"/>
      <point x="354" y="479"/>
      <point x="302" y="502"/>
      <point x="272" y="502" type="qcurve"/>
      <point x="260" y="502" name="mh01"/>
      <point x="235" y="493"/>
    </contour>
    <contour>
      <point x="407" y="-19" type="line" name="ih02"/>
      <point x="504" y="171"/>
      <point x="694" y="546"/>
      <point x="791" y="736" type="qcurve" name="sh10"/>
      <point x="805" y="736" type="line" name="sh09"/>
      <point x="708" y="546"/>
      <point x="518" y="171"/>
      <point x="421" y="-19" type="qcurve" name="sh11"/>
    </contour>
    <contour>
      <point x="871" y="10" type="line" name="sh12"/>
      <point x="928" y="10" type="line" name="ah01"/>
      <point x="946" y="136" type="line" name="ih03"/>
      <point x="684" y="136" type="line" name="sh14"/>
      <point x="1007" y="490" type="line" name="sh15"/>
      <point x="958" y="147" type="line" name="ih04"/>
      <point x="1030" y="147" type="line"/>
      <point x="1029" y="136" type="line" name="sh16"/>
      <point x="957" y="136" type="line" name="ih05"/>
      <point x="939" y="10" type="line" name="sh08"/>
      <point x="1001" y="10" type="line" name="sh17"/>
      <point x="999" y="0" type="line"/>
      <point x="869" y="0" type="line" name="ab01"/>
    </contour>
    <contour>
      <point x="992" y="459" type="line" name="sh13"/>
      <point x="708" y="147" type="line" name="sh18"/>
      <point x="948" y="147" type="line" name="ih06"/>
    </contour>
  </outline>
</glyph>
<glyph name="AE" format="1">
  <advance width="775"/>
  <unicode hex="00C6"/>
  <outline>
    <contour>
      <point x="788" y="546" type="line" name="sh01"/>
      <point x="808" y="686" type="line" name="sh02"/>
      <point x="512" y="686" type="line" name="sh04"/>
      <point x="466" y="360" type="line" name="ih01"/>
      <point x="737" y="360" type="line" name="ih02"/>
      <point x="735" y="346" type="line"/>
      <point x="464" y="346" type="line" name="ih03"/>
      <point x="417" y="14" type="line" name="sh03"/>
      <point x="727" y="14" type="line" name="sh08"/>
      <point x="747" y="154" type="line" name="sh07"/>
      <point x="761" y="154" type="line" name="sh06"/>
      <point x="740" y="0" type="line" name="sh09"/>
      <point x="402" y="0" type="line" name="dh01"/>
      <point x="446" y="316" type="line" name="ih05"/>
      <point x="299" y="316" type="line" name="ih06"/>
      <point x="256" y="240"/>
      <point x="172" y="89"/>
      <point x="128" y="14" type="qcurve" name="sh12"/>
      <point x="210" y="14" type="line" name="sv02"/>
      <point x="209" y="0" type="line"/>
      <point x="35" y="0" type="line" name="ab01"/>
      <point x="36" y="14" type="line" name="sv01"/>
      <point x="113" y="14" type="line" name="sh11"/>
      <point x="211" y="186"/>
      <point x="403" y="527"/>
      <point x="500" y="700" type="qcurve" name="ih04"/>
      <point x="824" y="700" type="line" name="sh05"/>
      <point x="802" y="546" type="line" name="dh02"/>
    </contour>
    <contour>
      <point x="448" y="330" type="line" name="ih07"/>
      <point x="495" y="666" type="line" name="sh10"/>
      <point x="450" y="580"/>
      <point x="355" y="415" name="fh01"/>
      <point x="307" y="330" type="qcurve" name="ih08"/>
    </contour>
  </outline>
</glyph>
<glyph name="Eth" format="1">
  <advance width="632"/>
  <unicode hex="00D0"/>
  <outline>
    <contour>
      <point x="94" y="360" type="line" name="iv01"/>
      <point x="158" y="360" type="line" name="ih01"/>
      <point x="204" y="686" type="line" name="sh01"/>
      <point x="131" y="686" type="line" name="sh02"/>
      <point x="133" y="700" type="line" name="at01"/>
      <point x="343" y="700" type="line"/>
      <point x="415" y="700"/>
      <point x="536" y="651" name="fh01"/>
      <point x="577.5" y="605.5" type="qcurve" smooth="yes" name="inserted"/>
      <point x="619" y="560"/>
      <point x="657" y="430"/>
      <point x="646" y="350" type="qcurve" name="dh02"/>
      <point x="637" y="291"/>
      <point x="579" y="167"/>
      <point x="526.0" y="116.0" type="qcurve" smooth="yes" name="inserted"/>
      <point x="473" y="65"/>
      <point x="317" y="0"/>
      <point x="211" y="0" type="qcurve"/>
      <point x="35" y="0" type="line" name="ab01"/>
      <point x="36" y="14" type="line" name="sv01"/>
      <point x="109" y="14" type="line" name="dh01"/>
      <point x="156" y="346" type="line" name="ih02"/>
      <point x="92" y="346" type="line" name="sh03"/>
    </contour>
    <contour>
      <point x="218" y="686" type="line" name="sh05"/>
      <point x="172" y="360" type="line" name="ih03"/>
      <point x="396" y="360" type="line"/>
      <point x="394" y="346" type="line" name="ih04"/>
      <point x="170" y="346" type="line" name="ih05"/>
      <point x="124" y="15" type="line" name="sh04"/>
      <point x="222" y="15" type="line"/>
      <point x="321" y="15"/>
      <point x="468" y="77"/>
      <point x="518.5" y="126.0" type="qcurve" smooth="yes" name="inserted"/>
      <point x="569" y="175"/>
      <point x="625" y="293"/>
      <point x="633" y="350" type="qcurve" name="sh06"/>
      <point x="644" y="427"/>
      <point x="608" y="552"/>
      <point x="568.5" y="595.5" type="qcurve" smooth="yes" name="inserted"/>
      <point x="529" y="639"/>
      <point x="414" y="686"/>
      <point x="347" y="686" type="qcurve"/>
    </contour>
  </outline>
</glyph>
<glyph name="Thorn" format="1">
  <advance width="481"/>
  <unicode hex="00DE"/>
  <outline>
    <contour>
      <point x="36" y="14" type="line" name="sv01"/>
      <point x="107" y="14" type="line" name="dh01"/>
      <point x="202" y="686" type="line" name="sh01"/>
      <point x="131" y="686" type="line" name="sv02"/>
      <point x="133" y="700" type="line" name="at01"/>
      <point x="307" y="700" type="line"/>
      <point x="305" y="686" type="line"/>
      <point x="216" y="686" type="line" name="sh03"/>
      <point x="195" y="535" type="line" name="ih01"/>
      <point x="321" y="535" type="line"/>
      <point x="350" y="535"/>
      <point x="417" y="515"/>
      <point x="444.0" y="494.0" type="qcurve" smooth="yes" name="inserted"/>
      <point x="471" y="473"/>
      <point x="503" y="405"/>
      <point x="496" y="357" type="qcurve" name="dh02"/>
      <point x="484" y="274"/>
      <point x="359" y="176"/>
      <point x="256" y="176" type="qcurve"/>
      <point x="144" y="176" type="line" name="ih02"/>
      <point x="121" y="14" type="line" name="sh02"/>
      <point x="210" y="14" type="line"/>
      <point x="209" y="0" type="line"/>
      <point x="35" y="0" type="line" name="ab01"/>
    </contour>
    <contour>
      <point x="146" y="190" type="line" name="ih03"/>
      <point x="261" y="190" type="line"/>
      <point x="319" y="190"/>
      <point x="400" y="222"/>
      <point x="426.0" y="246.5" type="qcurve" smooth="yes" name="inserted"/>
      <point x="452" y="271"/>
      <point x="478" y="330"/>
      <point x="482" y="357" type="qcurve" name="sh04"/>
      <point x="486" y="390"/>
      <point x="465" y="449"/>
      <point x="441.5" y="471.5" type="qcurve" smooth="yes" name="inserted"/>
      <point x="418" y="494"/>
      <point x="351" y="521"/>
      <point x="309" y="521" type="qcurve"/>
      <point x="193" y="521" type="line" name="ih04"/>
    </contour>
  </outline>
</glyph>
<glyph name="divide" format="1">
  <advance width="501"/>
  <unicode hex="00F7"/>
  <outline>
    <contour>
      <point x="428" y="210" type="line"/>
      <point x="68" y="210" type="line" name="av01"/>
      <point x="69" y="224" type="line" name="sh02"/>
      <point x="429" y="224" type="line" name="sh04"/>
    </contour>
    <contour>
      <point x="248" y="341" type="qcurve" name="sh01"/>
      <point x="250" y="349"/>
      <point x="263" y="361"/>
      <point x="271" y="361" type="qcurve" name="sv01"/>
      <point x="279" y="361"/>
      <point x="290" y="349"/>
      <point x="288" y="341" type="qcurve" name="sh03"/>
      <point x="287" y="333"/>
      <point x="273" y="321"/>
      <point x="265" y="321" type="qcurve" name="sv02"/>
      <point x="257" y="321"/>
      <point x="247" y="333"/>
    </contour>
    <contour>
      <point x="213" y="91" type="qcurve" name="ah01"/>
      <point x="214" y="99"/>
      <point x="228" y="111"/>
      <point x="236" y="111" type="qcurve" name="sv04"/>
      <point x="244" y="111"/>
      <point x="254" y="99"/>
      <point x="253" y="91" type="qcurve" name="sh05"/>
      <point x="251" y="83"/>
      <point x="238" y="71"/>
      <point x="230" y="71" type="qcurve" name="sv03"/>
      <point x="222" y="71"/>
      <point x="211" y="83"/>
    </contour>
  </outline>
</glyph>
<glyph name="quotedblleft" format="1">
  <advance width="249"/>
  <unicode hex="201C"/>
  <outline>
    <contour>
      <point x="189" y="590" type="qcurve" name="sh02"/>
      <point x="187" y="585"/>
      <point x="183" y="577"/>
      <point x="181" y="572" type="qcurve" name="sv02"/>
      <point x="155" y="598"/>
      <point x="140" y="671"/>
      <point x="154" y="711" type="qcurve" name="sh01"/>
      <point x="159" y="709"/>
      <point x="167" y="706"/>
      <point x="172" y="704" type="qcurve" name="sh03"/>
      <point x="161" y="669"/>
      <point x="171" y="610"/>
    </contour>
    <contour>
      <point x="85" y="590" type="qcurve" name="sh04"/>
      <point x="83" y="585"/>
      <point x="79" y="577"/>
      <point x="77" y="572" type="qcurve" name="sv01"/>
      <point x="51" y="598"/>
      <point x="36" y="671"/>
      <point x="50" y="711" type="qcurve" name="ah01"/>
      <point x="55" y="709"/>
      <point x="63" y="706"/>
      <point x="68" y="704" type="qcurve" name="sh05"/>
      <point x="57" y="669"/>
      <point x="67" y="610"/>
    </contour>
  </outline>
</glyph>
<glyph name="quotedblright" format="1">
  <advance width="248"/>
  <unicode hex="201D"/>
  <outline>
    <contour>
      <point x="50" y="572" type="qcurve" name="sv01"/>
      <point x="48" y="577"/>
      <point x="47" y="585"/>
      <point x="46" y="590" type="qcurve" name="sh02"/>
      <point x="70" y="610"/>
      <point x="97" y="669"/>
      <point x="95" y="704" type="qcurve" name="sh03"/>
      <point x="100" y="706"/>
      <point x="110" y="709"/>
      <point x="115" y="711" type="qcurve" name="sh01"/>
      <point x="118" y="671"/>
      <point x="82" y="598" name="fh01"/>
    </contour>
    <contour>
      <point x="154" y="572" type="qcurve" name="sv02"/>
      <point x="152" y="577"/>
      <point x="151" y="585"/>
      <point x="150" y="590" type="qcurve" name="sh04"/>
      <point x="174" y="610"/>
      <point x="201" y="669"/>
      <point x="199" y="704" type="qcurve" name="sh05"/>
      <point x="204" y="706"/>
      <point x="214" y="709"/>
      <point x="219" y="711" type="qcurve" name="ah01"/>
      <point x="222" y="671"/>
      <point x="186" y="598" name="fh02"/>
    </contour>
  </outline>
</glyph>
<glyph name="quotedblbase" format="1">
  <advance width="234"/>
  <unicode hex="201E"/>
  <outline>
    <contour>
      <point x="26" y="-47" type="qcurve" name="sv01"/>
      <point x="24" y="-42"/>
      <point x="23" y="-34"/>
      <point x="22" y="-29" type="qcurve" name="sh02"/>
      <point x="46" y="-9"/>
      <point x="73" y="50"/>
      <point x="71" y="85" type="qcurve" name="sh03"/>
      <point x="76" y="87"/>
      <point x="86" y="90"/>
      <point x="91" y="92" type="qcurve" name="sh01"/>
      <point x="94" y="52"/>
      <point x="58" y="-21" name="fh01"/>
    </contour>
    <contour>
      <point x="130" y="-47" type="qcurve" name="sv02"/>
      <point x="128" y="-42"/>
      <point x="127" y="-34" name="sh04"/>
      <point x="126" y="-29" type="qcurve"/>
      <point x="150" y="-9"/>
      <point x="177" y="50"/>
      <point x="175" y="85" type="qcurve" name="sh05"/>
      <point x="180" y="87"/>
      <point x="190" y="90"/>
      <point x="195" y="92" type="qcurve" name="ah01"/>
      <point x="198" y="52"/>
      <point x="162" y="-21" name="fh02"/>
    </contour>
  </outline>
</glyph>
<glyph name="guilsinglright" format="1">
  <advance width="392"/>
  <unicode hex="203A"/>
  <outline>
    <contour>
      <point x="119" y="93" type="line" name="sv01"/>
      <point x="160" y="130"/>
      <point x="240" y="202"/>
      <point x="281" y="239" type="qcurve" name="sh01"/>
      <point x="251" y="275"/>
      <point x="190" y="347"/>
      <point x="160" y="383" type="qcurve" name="sh03"/>
      <point x="162" y="400" type="line" name="sv02"/>
      <point x="199" y="359"/>
      <point x="273" y="280"/>
      <point x="310" y="239" type="qcurve" name="ah01"/>
      <point x="117" y="77" type="line" name="sh02"/>
    </contour>
  </outline>
</glyph>
